<svg width="240" height="48" viewBox="0 0 240 48" fill="none" xmlns="http://www.w3.org/2000/svg">
<g id="Group">
<g id="Group_2">
<g id="Group_3">
<path id="Vector" d="M208.795 11.8502H209.541C209.541 11.913 209.603 11.9758 209.603 12.0386C210.411 14.3627 211.282 16.6868 212.09 19.0737C212.276 19.639 212.463 20.2043 212.587 20.7068C212.587 20.7696 212.649 20.8325 212.649 20.8953L212.712 20.8325C213.085 19.3878 213.644 18.0059 214.142 16.624C214.701 15.1165 215.261 13.6717 215.758 12.1642C215.82 12.0386 215.82 11.913 215.883 11.7874H216.629C216.691 12.1014 217.25 20.8325 217.313 21.8375C217.188 21.9003 217.126 21.9003 217.002 21.9003C216.877 21.9003 216.815 21.9003 216.691 21.9003C216.629 21.3978 216.629 20.8953 216.567 20.3928C216.504 19.8903 216.504 19.3878 216.442 18.8852C216.442 18.3827 216.38 17.8802 216.38 17.3777C216.38 16.8752 216.318 16.3727 216.318 15.8702C216.318 15.3677 216.256 14.8652 216.256 14.3627C216.256 13.8602 216.256 13.3577 216.193 12.918C216.007 13.1692 215.945 13.4833 215.82 13.7974C215.696 14.1114 215.634 14.4255 215.51 14.6768C215.385 14.9908 215.323 15.3049 215.199 15.619C215.074 15.933 215.012 16.2471 214.888 16.4983C214.763 16.8124 214.639 17.0637 214.577 17.3777C214.453 17.6918 214.328 17.943 214.266 18.2571C214.142 18.5712 214.017 18.8224 213.955 19.1365C213.831 19.4506 213.706 19.7646 213.644 20.0787C213.52 20.3928 213.396 20.644 213.333 20.9581C213.209 21.2721 213.085 21.5234 213.023 21.8375C212.836 21.9003 212.712 21.8375 212.525 21.8375C211.468 18.8224 210.349 15.8702 209.416 12.7924C209.292 12.9808 209.354 13.1064 209.354 13.2321C209.354 13.4205 209.354 13.5461 209.354 13.7346C209.354 13.8602 209.354 14.0486 209.354 14.1743C209.354 14.2999 209.354 14.4883 209.354 14.6139C209.354 14.7396 209.354 14.928 209.354 15.0536C209.354 15.2421 209.354 15.3677 209.354 15.5561C209.354 15.6818 209.354 15.8702 209.292 15.9958C209.292 16.1215 209.292 16.3099 209.292 16.4355C209.292 16.5612 209.292 16.7496 209.292 16.8752C209.292 17.0637 209.292 17.1893 209.23 17.3777C209.23 17.5034 209.23 17.6918 209.23 17.8174C209.23 17.943 209.23 18.1315 209.168 18.2571C209.168 18.3827 209.168 18.5712 209.168 18.6968C209.168 18.8852 209.168 19.0109 209.105 19.1993C209.105 19.3249 209.105 19.5134 209.105 19.639C209.105 19.7646 209.105 19.9531 209.105 20.0787C209.105 20.2043 209.105 20.3928 209.043 20.5184C209.043 20.7068 209.043 20.8325 209.043 21.0209C209.043 21.1465 209.043 21.335 208.981 21.4606C208.981 21.5862 208.981 21.7746 208.981 21.9003C208.795 21.9631 208.546 21.9003 208.359 21.9631C208.359 21.9003 208.359 21.8375 208.359 21.7747C208.422 21.0209 208.484 20.2671 208.546 19.5134C208.608 19.0737 208.608 18.634 208.67 18.1943C208.795 16.7496 208.857 15.2421 208.981 13.7974C209.043 13.2321 209.043 12.6039 209.105 12.0386C208.732 11.9758 208.795 11.913 208.795 11.8502Z" fill="white"/>
<path id="Vector_2" d="M124.855 20.8325C124.855 21.0837 124.855 21.2721 124.855 21.4606C124.855 21.649 124.855 21.8375 124.855 22.0259V22.5912V23.1565V23.7219V24.2872V24.8525C124.607 24.9153 124.42 24.8525 124.234 24.9153C124.172 24.7897 124.172 24.6641 124.172 24.5384C124.172 22.34 124.172 20.1415 124.172 17.8802C124.172 16.938 124.109 15.9958 124.109 15.0536C124.109 14.9908 124.109 14.8652 124.109 14.8024C124.296 14.7396 124.545 14.8024 124.731 14.8024C124.793 14.928 124.731 15.1165 124.793 15.2421C124.793 15.3677 124.793 15.5561 124.793 15.6818C124.793 15.8074 124.793 15.933 124.793 16.0587C124.855 16.1215 124.918 16.0587 124.918 16.0587C124.98 15.9958 125.042 15.933 125.042 15.8074C125.477 15.1793 126.161 14.8024 126.907 14.6768C127.28 14.6139 127.653 14.6139 127.964 14.7396C128.586 14.8652 129.083 15.2421 129.519 15.7446C129.892 16.2471 130.078 16.8124 130.203 17.4405C130.327 18.2571 130.265 19.1365 130.016 19.9531C129.892 20.2671 129.767 20.5812 129.581 20.8953C128.959 21.7118 128.151 22.1515 127.156 22.1515C126.223 22.1515 125.477 21.7746 124.98 21.0209C124.98 20.8953 124.918 20.8953 124.855 20.8325ZM124.855 18.5084C124.855 18.7596 124.855 19.0109 124.855 19.1993C124.855 19.3249 124.855 19.4506 124.855 19.5134C125.042 20.5812 125.85 21.3978 127.032 21.4606C127.84 21.4606 128.524 21.1465 128.959 20.5184C129.146 20.2671 129.27 20.0159 129.332 19.7646C129.581 18.9481 129.643 18.0687 129.456 17.2521C129.332 16.7496 129.146 16.3099 128.835 15.933C128.337 15.3677 127.716 15.1165 126.969 15.1793C126.286 15.2421 125.788 15.5561 125.353 16.1215C124.98 16.624 124.793 17.1893 124.793 17.7546C124.855 18.0059 124.855 18.2571 124.855 18.5084Z" fill="white"/>
<path id="Vector_3" d="M162.039 11.8501H162.723C162.723 11.9129 162.723 12.0385 162.723 12.1014C162.723 14.0486 162.723 15.9958 162.723 17.943C162.723 18.5711 162.661 19.2621 162.412 19.8274C162.35 20.0158 162.288 20.2043 162.164 20.3927C161.604 21.3977 160.796 21.963 159.676 22.0258C159.241 22.0886 158.744 22.0258 158.309 21.9002C157.625 21.7118 157.127 21.2721 156.754 20.7068C156.443 20.2671 156.319 19.7646 156.195 19.1992C156.132 18.8224 156.07 18.3827 156.07 18.0058C156.07 16.0586 156.07 14.0486 156.07 12.1014V11.9129C156.195 11.8501 156.319 11.8501 156.443 11.8501C156.568 11.8501 156.63 11.8501 156.754 11.8501C156.816 11.9757 156.816 12.1013 156.816 12.227C156.816 14.1114 156.816 15.9958 156.816 17.8802C156.816 18.257 156.816 18.6967 156.879 19.0736C156.941 19.3877 157.003 19.7646 157.189 20.0786C157.625 21.0208 158.309 21.4605 159.366 21.4605C159.614 21.4605 159.863 21.4605 160.112 21.3977C160.733 21.2093 161.169 20.8952 161.48 20.3927C161.728 19.953 161.853 19.5133 161.977 19.0108C162.039 18.6339 162.039 18.3199 162.039 17.943C162.039 16.0586 162.039 14.1742 162.039 12.2898C162.039 12.1642 162.039 12.0385 162.039 11.8501Z" fill="white"/>
<path id="Vector_4" d="M103.404 21.3349C103.466 21.5233 103.404 21.7118 103.404 21.9002C103.404 21.9002 103.404 21.963 103.342 21.963C103.342 21.963 103.342 21.963 103.28 21.963C101.725 21.963 100.109 21.963 98.5544 21.963C98.4922 21.963 98.4922 21.963 98.4922 21.963C98.4922 21.963 98.4922 21.963 98.4922 21.9002C98.4922 21.9002 98.4922 21.9002 98.4922 21.8374C98.4922 18.5083 98.4922 15.242 98.4922 11.9129V11.8501C98.4922 11.8501 98.4922 11.8501 98.5544 11.8501C99.9844 11.8501 101.477 11.8501 102.907 11.8501C102.969 11.8501 103.031 11.8501 103.093 11.8501C103.093 11.8501 103.093 11.8501 103.155 11.9129C103.155 12.0385 103.155 12.227 103.155 12.4154C103.093 12.4782 102.969 12.4782 102.844 12.4782C101.725 12.4782 100.606 12.4782 99.487 12.4782H99.1761L99.1139 12.541C99.1139 13.7973 99.1139 14.9908 99.1139 16.247C99.1139 16.3098 99.1139 16.3098 99.1139 16.3727C99.5492 16.3727 99.9222 16.3727 100.357 16.3727C100.793 16.3727 101.228 16.3727 101.663 16.3727C102.098 16.3727 102.471 16.3727 102.907 16.3727C102.969 16.5611 102.907 16.7495 102.969 16.938C102.844 17.0636 102.782 17.0008 102.658 17.0008C101.601 17.0008 100.544 17.0008 99.5492 17.0008H99.1761C99.1761 17.0636 99.1761 17.1264 99.1761 17.1892C99.1761 18.5711 99.1761 19.8902 99.1761 21.2721C99.1761 21.3349 99.1761 21.3349 99.1761 21.3349C99.1761 21.3349 99.1761 21.3349 99.1761 21.3977C100.606 21.3349 101.974 21.3349 103.404 21.3349Z" fill="white"/>
<path id="Vector_5" d="M136.604 21.1465C136.667 21.3349 136.729 21.4605 136.791 21.649C136.729 21.7118 136.667 21.7118 136.604 21.7746C135.734 22.1515 134.864 22.2143 133.993 22.0259C133.06 21.8374 132.439 21.3349 131.941 20.4555C131.693 19.953 131.568 19.4505 131.506 18.948C131.444 18.1315 131.506 17.3149 131.817 16.5611C132.003 16.1214 132.252 15.6817 132.625 15.3677C133.247 14.8024 133.993 14.5511 134.864 14.6139C135.796 14.6767 136.418 15.1792 136.853 16.0586C137.164 16.7496 137.288 17.5033 137.226 18.2571C137.102 18.3199 136.977 18.3199 136.853 18.3199C135.423 18.3199 133.993 18.3199 132.625 18.3199H132.252C132.252 18.3827 132.19 18.4455 132.19 18.5083C132.19 19.0736 132.314 19.5762 132.501 20.0787C132.874 20.958 133.62 21.4606 134.553 21.5234C135.237 21.5862 135.92 21.4606 136.542 21.2093C136.542 21.1465 136.604 21.1465 136.604 21.1465ZM136.48 17.6918C136.48 17.1893 136.418 16.6867 136.169 16.2471C135.983 15.8074 135.672 15.4933 135.237 15.3677C134.428 15.0536 133.433 15.242 132.812 15.9958C132.563 16.3099 132.376 16.6239 132.314 17.0008C132.252 17.2521 132.19 17.4405 132.19 17.6918C132.501 17.7546 136.107 17.7546 136.48 17.6918Z" fill="white"/>
<path id="Vector_6" d="M181.439 18.3826C181.439 19.0107 181.315 19.5761 181.066 20.2042C180.631 21.2092 179.885 21.8373 178.765 22.0886C177.46 22.3398 176.341 21.8373 175.657 20.8323C175.346 20.3926 175.159 19.8901 175.097 19.3876C174.911 18.5082 174.973 17.6917 175.284 16.8751C175.595 15.9329 176.216 15.242 177.087 14.8651C178.455 14.2998 180.195 14.7394 181.004 16.3726C181.315 16.9379 181.439 17.566 181.439 18.3826ZM180.755 18.3198C180.755 17.566 180.506 16.8123 180.196 16.247C179.263 14.8023 177.211 14.8651 176.341 16.247C176.216 16.4354 176.154 16.6238 176.03 16.8123C175.657 17.6917 175.657 18.571 175.843 19.4504C175.968 20.0158 176.278 20.5183 176.651 20.8951C177.398 21.5861 178.517 21.7117 179.387 21.1464C179.76 20.8951 180.071 20.5183 180.32 20.1414C180.631 19.5761 180.755 18.9479 180.755 18.3198Z" fill="white"/>
<path id="Vector_7" d="M122.436 18.3199C122.436 18.8852 122.374 19.4505 122.187 19.9531C121.752 21.0209 121.006 21.7746 119.887 22.0259C118.581 22.2771 117.462 21.7746 116.778 20.7696C116.467 20.3299 116.28 19.8274 116.218 19.3249C116.094 18.5083 116.094 17.629 116.405 16.8124C116.654 16.1214 117.027 15.5561 117.586 15.1793C118.954 14.1742 121.13 14.4255 122.063 16.2471C122.249 16.8124 122.436 17.5033 122.436 18.3199ZM121.752 18.3199C121.752 17.5662 121.565 16.8752 121.13 16.1843C120.198 14.8024 118.208 14.8652 117.337 16.1214C117.213 16.3099 117.089 16.4983 117.027 16.6868C116.654 17.629 116.591 18.5712 116.902 19.5134C117.027 20.0159 117.337 20.4556 117.711 20.8324C118.457 21.5234 119.514 21.5862 120.384 21.0837C120.757 20.8324 121.068 20.5184 121.255 20.1415C121.628 19.639 121.752 19.0109 121.752 18.3199Z" fill="white"/>
<path id="Vector_8" d="M193.305 18.3827C193.305 17.8174 193.367 17.2521 193.616 16.6867C193.989 15.7445 194.61 15.0536 195.605 14.7395C196.911 14.2998 198.59 14.7395 199.336 16.3099C199.584 16.8124 199.709 17.3149 199.709 17.8174C199.771 18.5083 199.709 19.1365 199.522 19.8274C199.149 20.8952 198.465 21.649 197.408 21.963C196.103 22.3399 194.673 21.9002 193.926 20.644C193.616 20.1415 193.491 19.639 193.429 19.0736C193.367 18.8224 193.367 18.5711 193.305 18.3827ZM194.051 18.3199C194.051 18.6968 194.051 18.948 194.113 19.2621C194.237 19.8274 194.424 20.2671 194.797 20.7068C195.73 21.7746 197.16 21.7118 198.03 20.8324C198.341 20.5183 198.59 20.2043 198.714 19.8274C198.963 19.1993 199.025 18.5083 198.963 17.8174C198.9 17.2521 198.714 16.7495 198.403 16.247C198.092 15.8073 197.719 15.4933 197.284 15.3677C196.351 15.0536 195.232 15.3048 194.61 16.3099C194.486 16.4983 194.424 16.6867 194.299 16.8752C194.113 17.3149 193.989 17.8174 194.051 18.3199Z" fill="white"/>
<path id="Vector_9" d="M138.848 15.242C138.972 15.1164 139.159 14.9908 139.345 14.928C139.967 14.6767 140.651 14.5511 141.335 14.6139C142.143 14.7395 142.703 15.1792 142.951 15.933C143.138 16.4355 143.2 16.8752 143.2 17.3777C143.2 18.2571 143.2 19.1993 143.2 20.0787C143.2 20.3299 143.2 20.5812 143.2 20.8324C143.2 21.0837 143.262 21.3349 143.262 21.5862C143.262 21.649 143.262 21.7746 143.262 21.9002C143.076 21.9002 142.889 21.9002 142.64 21.9002C142.578 21.5862 142.578 21.2721 142.516 20.958C142.392 20.958 142.392 21.0209 142.33 21.0837C142.019 21.4605 141.584 21.7746 141.148 21.9002C140.651 22.0887 140.153 22.0887 139.718 21.963C138.91 21.7746 138.413 21.0837 138.35 20.3299C138.288 19.3249 138.661 18.5711 139.532 18.0686C140.029 17.8174 140.589 17.6289 141.148 17.5661C141.521 17.5033 141.894 17.5033 142.267 17.5033C142.33 17.5033 142.392 17.5033 142.454 17.5033C142.454 17.4405 142.454 17.3777 142.454 17.3149C142.454 17.0636 142.392 16.7496 142.33 16.4983C142.143 15.7445 141.646 15.3049 140.837 15.242C140.216 15.242 139.656 15.3677 139.159 15.6817C139.096 15.6817 139.034 15.7445 138.972 15.8074C138.91 15.7445 138.91 15.6189 138.848 15.5561C138.91 15.4305 138.848 15.3049 138.848 15.242ZM142.454 18.1314C141.894 18.1314 141.273 18.1314 140.713 18.2571C140.402 18.3199 140.153 18.3827 139.905 18.5711C139.345 18.8852 139.034 19.3249 139.034 19.953C139.034 20.2043 139.034 20.4555 139.096 20.644C139.283 21.1465 139.656 21.4605 140.153 21.5234C140.464 21.5862 140.837 21.5234 141.148 21.3977C142.019 21.0837 142.516 20.2043 142.454 19.5133C142.454 19.1365 142.454 18.7596 142.454 18.3827C142.516 18.3199 142.516 18.1943 142.454 18.1314Z" fill="white"/>
<path id="Vector_10" d="M219.424 14.8022C219.672 14.8022 219.859 14.8022 220.108 14.8022V15.1163C220.108 16.3726 220.108 17.566 220.108 18.8223C220.108 19.262 220.108 19.7017 220.232 20.1414C220.294 20.3298 220.356 20.4554 220.418 20.6439C220.667 21.0836 221.04 21.3976 221.538 21.4604C221.786 21.5233 222.097 21.5233 222.346 21.4604C223.092 21.3348 224.025 20.4554 224.025 19.3876C224.025 19.262 224.025 19.1364 224.025 19.0735C224.025 17.8173 224.025 16.4982 224.025 15.2419V14.9279C224.273 14.8651 224.46 14.9279 224.646 14.8651C224.709 14.9907 224.709 15.1163 224.709 15.1791C224.709 16.6866 224.709 18.1942 224.709 19.7645C224.709 20.4554 224.709 21.1464 224.771 21.8373C224.771 21.9001 224.771 21.9629 224.771 22.0258C224.646 22.0886 224.584 22.0258 224.46 22.0258C224.336 22.0258 224.273 22.0258 224.149 22.0258C224.149 21.6489 224.087 21.2092 224.087 20.7695C223.962 20.8323 223.962 20.9579 223.9 21.0207C223.527 21.5861 222.968 21.9629 222.346 22.0886C221.911 22.1514 221.475 22.1514 221.102 22.0258C220.605 21.9001 220.232 21.5861 219.983 21.1464C219.797 20.8323 219.61 20.4554 219.548 20.0157C219.486 19.7017 219.486 19.3876 219.486 19.0735C219.486 17.6916 219.486 16.2469 219.486 14.8651C219.361 14.8651 219.361 14.8651 219.424 14.8022Z" fill="white"/>
<path id="Vector_11" d="M170.37 21.963H169.686C169.686 21.8374 169.686 21.7746 169.686 21.649C169.686 20.3299 169.686 19.0108 169.686 17.7545C169.686 17.3777 169.686 17.0008 169.562 16.6239C169.562 16.5611 169.562 16.5611 169.499 16.4983C169.126 15.4933 168.194 14.9908 167.199 15.3676C166.328 15.6817 165.831 16.3726 165.707 17.252C165.707 17.3777 165.707 17.5661 165.707 17.7545C165.707 19.0736 165.707 20.3299 165.707 21.649V22.0258C165.582 22.0258 165.458 22.0258 165.334 22.0258C165.209 22.0258 165.147 22.0258 165.023 22.0258C164.961 21.9002 164.961 21.7746 164.961 21.7118C164.961 20.2043 164.961 18.6967 164.961 17.1892C164.961 16.4983 164.961 15.8073 164.898 15.1792C164.898 15.1164 164.898 14.9908 164.898 14.9279C165.085 14.8651 165.271 14.9279 165.458 14.9279C165.52 15.1164 165.52 15.3048 165.52 15.5561C165.52 15.7445 165.52 15.933 165.582 16.1214C165.707 16.1214 165.707 16.0586 165.707 15.9958C166.204 15.1792 166.95 14.8023 167.883 14.7395C168.753 14.7395 169.437 15.1164 169.935 15.8701C170.183 16.3098 170.308 16.7495 170.37 17.252C170.37 17.4405 170.37 17.6289 170.37 17.8173C170.37 19.1364 170.37 20.5183 170.37 21.8374V21.963Z" fill="white"/>
<path id="Vector_12" d="M188.589 21.9631H187.967C187.905 21.9003 187.905 21.7746 187.905 21.649C187.905 20.3928 187.905 19.1365 187.905 17.8174C187.905 17.4405 187.905 17.0637 187.78 16.7496C187.718 16.5612 187.656 16.3727 187.594 16.2471C187.221 15.3677 186.35 15.1165 185.666 15.2421C184.672 15.4305 183.863 16.3727 183.863 17.3777C183.863 17.5034 183.863 17.629 183.863 17.6918C183.863 19.0109 183.863 20.2671 183.863 21.5862V21.9003C183.739 21.9631 183.615 21.9631 183.552 21.9631C183.428 21.9631 183.366 21.9631 183.242 21.9631C183.179 21.8375 183.179 21.7746 183.179 21.649C183.179 20.0787 183.179 18.5084 183.179 16.938C183.179 16.3099 183.179 15.7446 183.117 15.1165C183.117 14.9908 183.117 14.928 183.117 14.8024C183.304 14.7396 183.49 14.8024 183.739 14.8024C183.801 15.2421 183.801 15.619 183.801 15.9958C183.925 15.9958 183.925 15.933 183.925 15.8702C184.423 15.0536 185.169 14.6768 186.102 14.6768C187.034 14.6768 187.718 15.1165 188.153 15.933C188.34 16.2471 188.402 16.624 188.464 17.0008C188.526 17.2521 188.526 17.5034 188.526 17.7546C188.526 19.0737 188.526 20.3928 188.526 21.7118V21.9631H188.589Z" fill="white"/>
<path id="Vector_13" d="M150.776 21.963H150.093C150.093 21.8374 150.093 21.7746 150.093 21.7118C150.093 20.3927 150.093 19.0736 150.093 17.7545C150.093 17.3777 150.03 17.0008 149.968 16.6239C149.906 16.4983 149.906 16.3726 149.844 16.247C149.471 15.3676 148.662 15.1164 147.979 15.242C147.046 15.3676 146.3 16.1842 146.175 17.1264C146.175 17.3148 146.113 17.5033 146.113 17.6917C146.113 19.0108 146.113 20.2671 146.113 21.5861V21.963C145.865 21.963 145.678 21.963 145.492 21.963C145.429 21.8374 145.429 21.7746 145.429 21.6489C145.429 20.0158 145.429 18.3827 145.429 16.6867C145.429 16.0586 145.429 15.4933 145.367 14.8651C145.367 14.8023 145.367 14.8023 145.367 14.7395C145.554 14.7395 145.74 14.7395 145.989 14.7395C146.051 15.1164 145.989 15.4933 146.051 15.8701C146.175 15.8701 146.175 15.8073 146.175 15.7445C146.549 15.1792 147.046 14.8023 147.73 14.6139C148.165 14.4882 148.6 14.4882 149.036 14.6139C149.657 14.8023 150.155 15.1792 150.466 15.8073C150.652 16.247 150.776 16.6867 150.776 17.1264C150.776 17.252 150.776 17.3777 150.776 17.5033C150.776 18.8852 150.776 20.2671 150.776 21.6489V21.963Z" fill="white"/>
<path id="Vector_14" d="M109.624 14.8022H110.308C110.308 14.9279 110.308 15.0535 110.308 15.1163C110.308 16.561 110.308 18.0057 110.308 19.4504C110.308 20.267 110.308 21.0836 110.371 21.9001C110.184 21.9629 109.935 21.9001 109.749 21.9629C109.687 21.5233 109.749 21.1464 109.687 20.7695C109.562 20.7695 109.562 20.8951 109.5 20.9579C109.189 21.3976 108.816 21.7745 108.319 21.9629C107.821 22.1514 107.324 22.2142 106.764 22.0886C106.143 21.9629 105.77 21.5861 105.459 21.0836C105.272 20.7067 105.148 20.3298 105.086 19.9529C105.023 19.7017 105.023 19.3876 105.023 19.1364C105.023 17.8173 105.023 16.4354 105.023 15.1163C105.023 15.0535 105.023 14.9907 105.023 14.9279C105.272 14.8651 105.459 14.9279 105.707 14.9279C105.707 15.0535 105.707 15.1791 105.707 15.3047C105.707 16.4982 105.707 17.7545 105.707 18.9479C105.707 19.3876 105.77 19.7645 105.832 20.1414C105.894 20.3926 105.956 20.6439 106.08 20.8951C106.329 21.3348 106.702 21.5861 107.2 21.6489C107.759 21.7117 108.319 21.5861 108.754 21.2092C109.314 20.7695 109.624 20.1414 109.624 19.3876C109.624 18.0057 109.624 16.6866 109.624 15.3676V14.8022Z" fill="white"/>
<path id="Vector_15" d="M202.261 14.7395C202.821 14.7395 203.442 14.7395 204.002 14.7395C204.064 14.928 204.002 15.1164 204.002 15.3048C203.878 15.3677 203.691 15.3048 203.567 15.3048C203.38 15.3048 203.256 15.3048 203.069 15.3048C202.945 15.3048 202.758 15.3048 202.634 15.3048C202.51 15.3048 202.323 15.3048 202.199 15.3048C202.199 15.8702 202.199 16.4355 202.199 16.938C202.199 17.5033 202.199 18.0058 202.199 18.5711V20.2043V21.8374C201.95 21.9002 201.764 21.8374 201.515 21.9002C201.515 21.5862 201.515 21.3349 201.515 21.0837C201.515 20.8324 201.515 20.5183 201.515 20.2671V19.4505V18.6339V17.8174V17.0008V16.1842V15.3677C201.204 15.3048 200.893 15.3677 200.582 15.3048C200.52 15.1164 200.582 14.928 200.582 14.7395C200.893 14.6767 201.204 14.7395 201.515 14.6767C201.577 14.5511 201.577 14.4255 201.577 14.2998C201.577 13.8601 201.639 13.3576 201.701 12.918C201.764 12.6039 201.888 12.3526 202.075 12.1014C202.448 11.4732 203.007 11.1592 203.753 11.1592C204.064 11.1592 204.375 11.1592 204.686 11.2848C204.748 11.2848 204.81 11.3476 204.872 11.4104C204.872 11.5989 204.748 11.7873 204.686 11.9129C204.624 11.9129 204.562 11.9129 204.562 11.8501C204.251 11.7245 204.002 11.7245 203.691 11.7245C203.256 11.7245 202.883 11.9758 202.696 12.3526C202.572 12.6039 202.448 12.9179 202.448 13.1692C202.385 13.6717 202.385 14.1114 202.385 14.6139C202.199 14.6767 202.199 14.7395 202.261 14.7395Z" fill="white"/>
<path id="Vector_16" d="M240.003 15.0536C239.941 15.242 239.817 15.4305 239.754 15.6189C239.692 15.5561 239.568 15.5561 239.506 15.4933C238.822 15.1792 238.076 15.1164 237.392 15.3048C236.708 15.4933 236.21 15.8702 235.837 16.4983C235.589 16.938 235.464 17.3777 235.402 17.8174C235.34 18.4455 235.34 19.0736 235.589 19.7018C235.899 20.644 236.583 21.2721 237.516 21.4605C238.076 21.5862 238.697 21.5233 239.257 21.3349C239.443 21.2721 239.568 21.2093 239.692 21.1465C239.817 21.2093 239.817 21.3349 239.817 21.3977C239.879 21.4605 239.879 21.5861 239.879 21.649C239.692 21.7746 239.443 21.8374 239.195 21.9002C238.573 22.0887 237.889 22.1515 237.205 22.0258C236.086 21.8374 235.278 21.1465 234.842 20.0786C234.407 18.948 234.407 17.8174 234.905 16.6867C235.402 15.4933 236.335 14.8023 237.64 14.6139C238.262 14.5511 238.822 14.6139 239.443 14.8023C239.692 14.928 239.817 14.9908 240.003 15.0536Z" fill="white"/>
<path id="Vector_17" d="M230.231 15.0536C230.168 15.242 230.044 15.4305 229.982 15.6189C229.857 15.5561 229.795 15.4933 229.733 15.4933C229.36 15.3048 228.987 15.242 228.614 15.242C228.552 15.242 228.427 15.242 228.365 15.242C227.681 15.3676 227.246 15.933 227.37 16.7495C227.433 17.0008 227.557 17.1892 227.744 17.3777C227.868 17.5033 228.054 17.6289 228.241 17.6917C228.49 17.8174 228.676 17.943 228.925 18.0058C229.236 18.1314 229.484 18.2571 229.733 18.4455C230.541 19.0736 230.79 20.0786 230.293 20.958C230.044 21.4605 229.609 21.7746 229.111 21.963C228.241 22.2143 227.37 22.1515 226.562 21.649C226.562 21.649 226.562 21.5862 226.5 21.5862C226.562 21.3977 226.624 21.2093 226.749 21.0208C226.873 21.0836 226.935 21.1465 227.06 21.2093C227.557 21.4605 228.117 21.5862 228.676 21.4605C228.8 21.4605 228.925 21.3977 229.049 21.3977C229.671 21.1465 229.92 20.644 229.92 20.0786C229.92 19.6389 229.733 19.3249 229.422 19.0736C229.174 18.8852 228.925 18.7596 228.676 18.6339C228.49 18.5711 228.303 18.4455 228.117 18.3827C227.868 18.2571 227.619 18.0686 227.37 17.8802C226.376 17.0636 226.687 15.6817 227.495 15.0536C227.868 14.8023 228.303 14.6767 228.738 14.6139C229.236 14.6139 229.733 14.6767 230.168 14.928C230.106 14.9908 230.168 14.9908 230.231 15.0536Z" fill="white"/>
<path id="Vector_18" d="M113.238 21.963H112.554C112.554 21.9002 112.554 21.7746 112.554 21.7118C112.554 20.3299 112.554 19.0108 112.554 17.6289C112.554 16.8124 112.554 15.9958 112.492 15.1792C112.492 15.0536 112.492 14.928 112.492 14.8023C112.679 14.7395 112.865 14.8023 113.052 14.8023C113.114 15.0536 113.052 15.242 113.114 15.4933C113.114 15.7445 113.114 15.933 113.114 16.1842C113.238 16.1842 113.238 16.0586 113.238 15.9958C113.363 15.6817 113.611 15.3677 113.86 15.1164C114.171 14.8023 114.544 14.6767 114.979 14.6139C115.104 14.6139 115.228 14.6139 115.352 14.6139C115.414 14.8651 115.352 15.0536 115.352 15.3048H115.041C114.482 15.3048 114.109 15.5561 113.736 15.933C113.425 16.3098 113.3 16.7495 113.176 17.1892C113.114 17.4405 113.114 17.7546 113.114 18.0058C113.114 19.1993 113.114 20.3927 113.114 21.5862V21.963H113.238Z" fill="white"/>
<path id="Vector_19" d="M172.668 14.8022H173.29C173.29 14.8022 173.352 14.8022 173.352 14.8651C173.352 14.8651 173.352 14.8651 173.352 14.9279C173.352 17.252 173.352 19.576 173.352 21.9629C173.352 21.9629 173.352 22.0258 173.29 22.0258C173.103 22.0258 172.855 22.0258 172.668 22.0258C172.668 22.0258 172.668 22.0258 172.668 21.9629C172.668 19.6389 172.668 17.3148 172.668 14.9907C172.606 14.8651 172.668 14.8651 172.668 14.8022Z" fill="white"/>
<path id="Vector_20" d="M232.297 14.8023C232.483 14.7395 232.732 14.8023 232.919 14.8023L232.981 14.8651C232.981 14.8651 232.981 14.8651 232.981 14.928C232.981 17.252 232.981 19.5761 232.981 21.963V22.0258C232.794 22.0258 232.546 22.0258 232.359 22.0258C232.359 22.0258 232.359 22.0258 232.359 21.963C232.359 21.963 232.359 21.963 232.359 21.9002C232.359 19.5761 232.359 17.252 232.359 14.8651C232.297 14.8651 232.297 14.8023 232.297 14.8023Z" fill="white"/>
</g>
<path id="Vector_21" d="M173.533 12.6666C173.533 13.1691 173.16 13.4204 172.787 13.2947C172.601 13.2319 172.414 12.9807 172.414 12.7294C172.414 12.541 172.476 12.4154 172.538 12.2897C172.787 11.9757 173.222 12.0385 173.409 12.3525C173.471 12.4782 173.471 12.6038 173.533 12.6666Z" fill="white"/>
<path id="Vector_22" d="M233.16 12.7295C233.16 13.0435 232.974 13.2948 232.663 13.3576C232.477 13.3576 232.352 13.3576 232.228 13.232C231.917 12.9807 231.979 12.4154 232.29 12.227C232.539 12.1013 232.787 12.1013 232.974 12.2898C233.16 12.4154 233.16 12.541 233.16 12.7295Z" fill="white"/>
</g>
<g id="Group_4">
<g id="Group_5">
<path id="Vector_23" d="M119.754 36.9125H119.133C119.07 36.8497 119.07 36.7241 119.07 36.5985C119.07 35.2166 119.07 33.8975 119.07 32.5156C119.07 32.1387 119.07 31.7619 118.946 31.4478C118.884 31.3222 118.822 31.1965 118.76 31.0081C118.386 30.2543 117.578 29.9403 116.77 30.2543C116.521 30.38 116.335 30.5056 116.148 30.694C115.651 31.1965 115.402 31.8247 115.402 32.5156C115.402 33.0809 115.402 33.7091 115.402 34.2744C115.402 35.0281 115.402 35.7191 115.402 36.4729V36.8497C115.153 36.8497 114.967 36.8497 114.718 36.8497C114.656 36.7241 114.718 36.5985 114.656 36.4729C114.656 34.9025 114.656 33.3322 114.656 31.7619C114.656 31.1337 114.656 30.4428 114.594 29.8146C114.594 29.7518 114.594 29.7518 114.594 29.689C114.718 29.689 114.78 29.689 114.905 29.689C115.029 29.689 115.091 29.689 115.216 29.689C115.216 30.0659 115.278 30.4428 115.278 30.8825C115.34 30.8197 115.402 30.8197 115.402 30.7568C115.526 30.5684 115.651 30.4428 115.775 30.2543C116.397 29.6262 117.143 29.375 117.951 29.5634C118.449 29.689 118.822 29.9403 119.133 30.38C119.257 30.5056 119.319 30.694 119.443 30.8825C119.443 30.9453 119.506 31.0081 119.506 31.0709C119.568 30.9453 119.63 30.8197 119.692 30.7568C120.003 30.2543 120.438 29.8775 121.06 29.689C121.433 29.5634 121.806 29.5634 122.241 29.6262C122.863 29.7518 123.298 30.1287 123.671 30.6312C123.858 31.0081 123.982 31.385 124.044 31.8247C124.107 32.1387 124.107 32.4528 124.107 32.7669C124.107 34.0231 124.107 35.2794 124.107 36.5985C124.107 36.7241 124.107 36.8497 124.107 36.9754C123.982 36.9754 123.858 36.9754 123.734 36.9754C123.609 36.9754 123.547 36.9754 123.423 36.9754C123.423 36.8497 123.423 36.7241 123.423 36.5985C123.423 35.405 123.423 34.2116 123.423 33.0181C123.423 32.6412 123.423 32.2015 123.298 31.8247C123.236 31.6362 123.174 31.4478 123.112 31.2594C122.677 30.1915 121.557 30.1287 120.873 30.5056C120.314 30.8197 119.941 31.3222 119.754 31.9503C119.692 32.1387 119.692 32.39 119.692 32.6412C119.692 34.0231 119.692 35.3422 119.692 36.7241C119.754 36.6613 119.754 36.7869 119.754 36.9125Z" fill="white"/>
<path id="Vector_24" d="M127.027 35.8447V39.8019C126.778 39.8648 126.592 39.8019 126.343 39.8648C126.281 39.7391 126.281 39.6135 126.281 39.4879C126.281 37.3522 126.281 35.1538 126.281 33.0181C126.281 32.0131 126.219 31.0081 126.219 30.0031C126.219 29.9403 126.219 29.8146 126.219 29.7518C126.405 29.689 126.592 29.7518 126.841 29.7518C126.841 29.8146 126.903 29.8775 126.903 29.9403C126.903 30.2543 126.903 30.5684 126.903 30.8825C126.903 30.9453 126.903 31.0081 126.965 31.0709C127.027 31.0081 127.089 30.8825 127.151 30.8197C127.524 30.2543 128.022 29.9403 128.644 29.7518C129.887 29.4378 131.131 29.8775 131.877 31.0709C132.125 31.5106 132.25 31.9503 132.312 32.39C132.436 33.2694 132.374 34.0859 132.125 34.9653C131.939 35.4678 131.69 35.9703 131.317 36.2844C130.447 37.101 129.39 37.2894 128.271 36.9125C127.835 36.7869 127.462 36.4728 127.151 36.096C127.151 35.9703 127.151 35.9075 127.027 35.8447ZM131.752 33.3322C131.752 33.1437 131.752 32.8925 131.69 32.7041C131.628 32.0759 131.441 31.5106 131.068 31.0709C130.385 30.1915 129.265 30.0031 128.333 30.5056C127.462 31.0081 127.027 31.7619 126.965 32.7041C126.903 33.2066 126.965 33.7719 126.965 34.2744C126.965 34.4 126.965 34.5256 127.027 34.5884C127.276 35.6563 128.208 36.5357 129.452 36.4728C130.136 36.41 130.633 36.1588 131.068 35.6563C131.255 35.405 131.441 35.091 131.504 34.7769C131.69 34.2744 131.752 33.8347 131.752 33.3322Z" fill="white"/>
<path id="Vector_25" d="M222.961 26.2971H223.583C223.645 26.4227 223.645 26.4856 223.645 26.6112C223.645 27.9303 223.645 29.2493 223.645 30.5684C223.645 30.694 223.645 30.7569 223.645 30.8825C223.769 30.8197 223.769 30.7569 223.831 30.694C224.267 30.0659 224.826 29.689 225.572 29.5634C226.505 29.375 227.5 29.8147 227.997 30.694C228.184 31.0081 228.308 31.385 228.308 31.7619C228.37 32.0131 228.37 32.2644 228.37 32.5156C228.37 33.8975 228.37 35.2794 228.37 36.6613C228.37 36.7241 228.37 36.7869 228.37 36.8497C228.246 36.9125 228.122 36.9125 228.059 36.9125C227.935 36.9125 227.873 36.9125 227.748 36.9125C227.686 36.7869 227.686 36.6613 227.686 36.5985C227.686 35.3422 227.686 34.1488 227.686 32.8925C227.686 32.5156 227.686 32.1387 227.562 31.7619C227.5 31.5734 227.438 31.385 227.375 31.1965C227.065 30.5056 226.443 30.1915 225.634 30.2543C224.515 30.38 223.645 31.3222 223.645 32.4528C223.645 33.8347 223.645 35.1538 223.645 36.5357V36.9125C223.458 36.9754 223.21 36.9126 222.961 36.9754C222.961 36.8497 222.961 36.7869 222.961 36.7241C222.961 36.096 222.961 35.4678 222.961 34.9025V26.7368V26.2971Z" fill="white"/>
<path id="Vector_26" d="M202.891 33.395C202.891 32.7041 203.015 32.076 203.264 31.4478C203.699 30.5685 204.321 29.9403 205.315 29.6891C206.559 29.375 208.113 29.7519 208.859 31.2594C209.108 31.7619 209.233 32.2644 209.295 32.8297C209.357 33.5207 209.295 34.2116 209.046 34.9026C208.673 35.9704 207.927 36.6613 206.87 36.9754C205.564 37.3523 204.196 36.8498 203.45 35.6563C203.077 35.091 202.953 34.4001 202.891 33.7091C202.891 33.5835 202.891 33.4579 202.891 33.395ZM206.124 30.1916C205.253 30.1916 204.569 30.5685 204.134 31.2594C204.01 31.4478 203.885 31.6363 203.823 31.8875C203.575 32.6413 203.512 33.395 203.637 34.1488C203.761 34.7769 204.01 35.2794 204.445 35.7191C205.315 36.6613 206.683 36.6613 207.616 35.8448C207.989 35.5307 208.238 35.1538 208.362 34.7141C208.611 33.9604 208.673 33.2066 208.549 32.4528C208.424 31.9503 208.3 31.5107 207.989 31.1338C207.492 30.5056 206.87 30.1916 206.124 30.1916Z" fill="white"/>
<path id="Vector_27" d="M182.367 33.395C182.367 32.7668 182.429 32.1387 182.678 31.5106C183.113 30.5684 183.735 29.9403 184.73 29.689C185.973 29.3749 187.527 29.8146 188.274 31.2593C188.647 31.9503 188.709 32.704 188.709 33.5206C188.709 34.0231 188.584 34.5256 188.398 34.9653C187.963 36.0959 187.092 36.8497 185.911 37.0381C184.792 37.2266 183.859 36.8497 183.113 35.9703C182.74 35.4678 182.491 34.9025 182.367 34.3372C182.367 34.2115 182.305 34.0859 182.305 33.9603C182.367 33.7719 182.367 33.5834 182.367 33.395ZM188.087 33.2065C188.087 33.0809 188.087 32.9553 188.025 32.7668C187.963 32.1387 187.714 31.5734 187.341 31.0709C186.47 29.8774 184.667 29.9403 183.797 31.0081C183.548 31.2593 183.424 31.5734 183.299 31.8875C182.989 32.704 182.926 33.4578 183.113 34.2744C183.237 34.9025 183.548 35.5306 184.046 35.9703C184.792 36.5985 185.849 36.6613 186.657 36.1588C187.092 35.9075 187.403 35.4678 187.652 35.0281C187.963 34.4628 188.087 33.8975 188.087 33.2065Z" fill="white"/>
<path id="Vector_28" d="M161.67 33.2694C161.67 33.8975 161.608 34.5256 161.359 35.0909C160.861 36.1588 160.053 36.8497 158.872 37.0381C157.69 37.2266 156.696 36.7869 156.012 35.8447C155.639 35.3422 155.452 34.7769 155.328 34.1487C155.203 33.395 155.266 32.5784 155.514 31.8246C155.763 31.1337 156.136 30.5684 156.696 30.1287C158.064 29.0609 160.364 29.3121 161.297 31.2593C161.545 31.9503 161.67 32.5784 161.67 33.2694ZM160.986 33.3322C160.924 33.0181 160.924 32.7668 160.861 32.4528C160.737 31.9503 160.551 31.5106 160.24 31.0709C159.369 29.8774 157.566 29.9403 156.696 30.9453C156.509 31.1965 156.323 31.4478 156.198 31.7618C155.825 32.6412 155.825 33.5834 156.074 34.5256C156.26 35.0909 156.509 35.5306 157.007 35.9075C157.753 36.5356 158.81 36.5985 159.618 36.0959C159.991 35.8447 160.302 35.4678 160.551 35.0909C160.861 34.5256 160.986 33.9603 160.986 33.3322Z" fill="white"/>
<path id="Vector_29" d="M112.99 33.3322C112.99 33.8975 112.928 34.5256 112.617 35.091C112.119 36.1588 111.311 36.8497 110.13 37.0382C108.948 37.2266 108.016 36.7869 107.27 35.8447C106.896 35.3422 106.648 34.7769 106.586 34.1488C106.461 33.395 106.523 32.5784 106.772 31.8247C106.959 31.1965 107.332 30.694 107.829 30.2543C109.197 29.0609 111.622 29.3121 112.554 31.2594C112.865 31.8875 112.99 32.5156 112.99 33.3322ZM107.27 33.2694C107.27 33.5834 107.27 33.8975 107.332 34.2116C107.456 34.7769 107.705 35.3422 108.14 35.7819C109.01 36.7241 110.378 36.7241 111.249 35.9075C111.56 35.5935 111.808 35.2166 111.995 34.8397C112.244 34.2116 112.306 33.5206 112.244 32.8297C112.181 32.2016 111.933 31.6362 111.622 31.1337C110.751 29.8775 108.824 29.9403 107.953 31.0709C107.829 31.2594 107.705 31.4478 107.58 31.6362C107.332 32.1387 107.27 32.7041 107.27 33.2694Z" fill="white"/>
<path id="Vector_30" d="M134.305 33.2694C134.305 33.8976 134.367 34.4629 134.616 35.0282C135.051 35.9704 135.735 36.4101 136.73 36.4729C137.414 36.5357 138.035 36.4101 138.657 36.1588C138.657 36.1588 138.719 36.1588 138.781 36.1588C138.844 36.3473 138.906 36.4729 138.968 36.6613C138.844 36.7242 138.719 36.787 138.595 36.8498C137.787 37.1638 136.978 37.2267 136.108 37.101C135.3 36.9754 134.678 36.5357 134.18 35.7819C133.932 35.4051 133.745 34.9026 133.683 34.4629C133.497 33.5207 133.559 32.6413 133.87 31.7619C134.056 31.2594 134.305 30.8197 134.678 30.4428C135.424 29.6891 136.357 29.5006 137.414 29.7519C137.911 29.8775 138.346 30.1916 138.657 30.6313C138.968 31.071 139.154 31.5735 139.217 32.076C139.279 32.39 139.279 32.7669 139.279 33.081C139.279 33.1438 139.279 33.2066 139.279 33.2694C138.844 33.3322 138.408 33.2694 138.035 33.2694C137.6 33.2694 137.227 33.2694 136.792 33.2694H135.548H134.305ZM138.657 32.6413C138.657 32.2016 138.595 31.7619 138.471 31.385C138.097 30.38 137.165 30.0031 136.232 30.1916C135.735 30.2544 135.362 30.5685 135.051 30.9453C134.678 31.385 134.491 31.9503 134.429 32.5157C134.429 32.5785 134.429 32.5785 134.429 32.6413C134.678 32.7041 138.222 32.7041 138.657 32.6413Z" fill="white"/>
<path id="Vector_31" d="M105.396 36.0331C105.458 36.2215 105.52 36.41 105.582 36.5984C105.52 36.6612 105.458 36.6612 105.396 36.724C105.023 36.9125 104.588 36.9753 104.215 37.0381C103.717 37.1009 103.22 37.1637 102.722 37.1009C101.541 37.0381 100.484 36.5356 99.6758 35.6562C99.1784 35.0909 98.8675 34.3999 98.6809 33.709C98.3701 32.5155 98.4322 31.3221 98.7431 30.1286C99.054 29.1864 99.5514 28.3699 100.36 27.7417C101.106 27.1764 101.914 26.9252 102.785 26.7995C103.468 26.7367 104.152 26.7995 104.836 26.9252C105.085 26.988 105.334 27.0508 105.52 27.1764C105.52 27.3649 105.396 27.5533 105.334 27.7417C105.272 27.6789 105.209 27.6789 105.147 27.6789C104.525 27.4277 103.842 27.3021 103.22 27.3649C102.722 27.3649 102.225 27.4277 101.79 27.6161C100.671 28.0558 99.9245 28.8724 99.5514 30.003C99.3027 30.694 99.2405 31.3849 99.2405 32.1387C99.2405 32.7668 99.3027 33.3321 99.5514 33.9602C100.049 35.405 101.044 36.2843 102.536 36.4728C103.468 36.5984 104.401 36.5356 105.272 36.1587C105.272 36.0959 105.334 36.0331 105.396 36.0331Z" fill="white"/>
<path id="Vector_32" d="M210.969 29.7518C211.217 29.7518 211.404 29.7518 211.653 29.7518C211.653 29.8774 211.653 30.003 211.653 30.1287C211.653 31.3221 211.653 32.5156 211.653 33.709C211.653 34.1487 211.653 34.5884 211.777 35.0281C211.839 35.1537 211.839 35.2793 211.901 35.405C212.212 36.2215 212.896 36.5356 213.704 36.41C214.699 36.2843 215.445 35.4678 215.57 34.4628C215.57 34.2743 215.632 34.0859 215.632 33.8974C215.632 32.6412 215.632 31.3221 215.632 30.0658V29.7518C215.756 29.689 215.881 29.689 215.943 29.689C216.067 29.689 216.129 29.689 216.254 29.689C216.316 29.8146 216.316 29.9402 216.316 30.0658C216.316 31.6362 216.316 33.2065 216.316 34.7768C216.316 35.405 216.316 36.0959 216.378 36.724V36.7869C216.191 36.8497 216.005 36.7869 215.818 36.7869C215.756 36.6612 215.818 36.5356 215.756 36.3472C215.756 36.2215 215.756 36.0959 215.756 35.9703C215.756 35.8447 215.756 35.719 215.756 35.5934C215.632 35.5934 215.632 35.719 215.57 35.719C215.259 36.1587 214.886 36.5356 214.388 36.724C213.891 36.9125 213.331 36.9753 212.834 36.8497C212.274 36.724 211.839 36.3472 211.528 35.7818C211.28 35.2793 211.155 34.7768 211.093 34.2115C211.093 34.0859 211.093 33.9603 211.093 33.8346C211.093 32.5156 211.093 31.1965 211.093 29.8774C210.969 29.9402 210.969 29.8774 210.969 29.7518Z" fill="white"/>
<path id="Vector_33" d="M168.753 36.9126H168.069C168.069 36.7869 168.069 36.7241 168.069 36.5985C168.069 35.3422 168.069 34.0231 168.069 32.7669C168.069 32.39 168.069 32.0131 167.944 31.6363C167.882 31.4478 167.82 31.2594 167.758 31.0709C167.447 30.5056 167.012 30.2544 166.39 30.1915C165.395 30.1287 164.525 30.8197 164.214 31.7619C164.09 32.0759 164.09 32.39 164.09 32.6413C164.09 33.9603 164.09 35.2166 164.09 36.5357V36.8497C163.965 36.9126 163.841 36.8497 163.716 36.9126C163.592 36.9126 163.53 36.9126 163.406 36.9126C163.343 36.7869 163.343 36.6613 163.343 36.5357C163.343 34.9653 163.343 33.4578 163.343 31.8875C163.343 31.1966 163.343 30.5056 163.281 29.8147V29.7519C163.468 29.689 163.654 29.7519 163.903 29.7519C163.965 30.1287 163.903 30.5684 163.965 30.9453C164.09 30.9453 164.09 30.8825 164.09 30.8197C164.649 30.0031 165.395 29.6262 166.328 29.6262C167.26 29.6262 167.882 30.0659 168.317 30.8825C168.504 31.3222 168.628 31.7619 168.628 32.2016C168.628 32.3272 168.628 32.4528 168.628 32.5784C168.628 33.9603 168.628 35.2794 168.628 36.6613V36.9126H168.753Z" fill="white"/>
<path id="Vector_34" d="M196.234 26.8624C196.483 26.8624 196.732 26.8624 196.98 26.8624C197.851 28.5584 198.721 30.2543 199.654 32.0131C200.524 30.2543 201.457 28.5584 202.39 26.8624C202.638 26.8624 202.825 26.8624 203.012 26.8624C203.012 26.8624 203.074 26.8624 203.136 26.8624C203.074 26.9881 203.012 27.0509 202.949 27.1765C202.017 28.8724 201.022 30.5684 200.089 32.2644C199.965 32.4528 199.903 32.6412 199.903 32.8925C199.903 34.0859 199.903 35.3422 199.903 36.5357C199.903 36.6613 199.903 36.7869 199.841 36.9125H199.219C199.157 36.8497 199.157 36.7241 199.157 36.5985C199.157 35.3422 199.157 34.0859 199.157 32.8297C199.157 32.5784 199.094 32.39 199.032 32.2015C198.1 30.5056 197.229 28.8096 196.297 27.1137C196.297 27.1137 196.234 26.9881 196.234 26.8624Z" fill="white"/>
<path id="Vector_35" d="M180.194 29.7518C180.381 29.7518 180.567 29.7518 180.754 29.7518C180.94 29.7518 181.127 29.7518 181.314 29.7518C181.5 29.7518 181.687 29.7518 181.935 29.7518V30.3171C181.873 30.3171 181.811 30.3171 181.749 30.38C181.314 30.38 180.94 30.38 180.505 30.38H180.194C180.132 30.5056 180.132 30.6312 180.132 30.7568C180.132 32.704 180.132 34.6512 180.132 36.5985V36.9753C179.883 37.0382 179.697 36.9753 179.448 36.9753C179.386 36.7869 179.448 36.5356 179.448 36.3472C179.448 36.1588 179.448 35.9703 179.448 35.7819V35.1538V34.5884V33.9603V33.395V32.7668V32.2015V31.5734C179.448 31.385 179.448 31.1965 179.448 31.0081C179.448 30.8196 179.448 30.6312 179.448 30.38C179.137 30.38 178.827 30.38 178.516 30.38C178.516 30.1915 178.516 30.0031 178.516 29.8146C178.827 29.7518 179.137 29.8146 179.448 29.8146C179.51 29.689 179.448 29.5006 179.448 29.3749C179.448 28.9352 179.448 28.4956 179.573 28.0559C179.635 27.8674 179.697 27.679 179.759 27.4905C180.132 26.674 180.878 26.1715 181.749 26.2343C181.997 26.2343 182.308 26.2971 182.557 26.4227C182.619 26.4227 182.681 26.4855 182.744 26.4855C182.681 26.674 182.619 26.7996 182.557 26.988C182.308 26.9252 182.06 26.8624 181.873 26.8624C181.687 26.7996 181.438 26.8624 181.251 26.9252C180.878 26.988 180.63 27.2393 180.505 27.5534C180.381 27.8046 180.257 28.1187 180.257 28.3699C180.194 28.8096 180.194 29.3121 180.194 29.7518C180.194 29.689 180.194 29.689 180.194 29.7518Z" fill="white"/>
<path id="Vector_36" d="M170.492 36.5984C170.554 36.41 170.617 36.2215 170.741 36.0331C170.865 36.0331 170.927 36.0959 171.052 36.1587C171.549 36.41 172.047 36.5356 172.606 36.4728C172.855 36.4728 173.041 36.41 173.228 36.2843C173.601 36.0331 173.85 35.719 173.85 35.2793C173.912 34.714 173.663 34.2743 173.228 33.9603C172.979 33.7718 172.668 33.6462 172.42 33.5206C172.233 33.4577 172.109 33.3949 171.922 33.2693C171.736 33.1437 171.549 33.0181 171.363 32.8924C170.306 32.013 170.617 30.5683 171.549 29.9402C172.047 29.6261 172.544 29.5633 173.104 29.6261C173.539 29.6889 173.912 29.8146 174.285 30.0658C174.223 30.2543 174.161 30.4427 174.036 30.6312C173.974 30.5683 173.912 30.5683 173.85 30.5055C173.414 30.2543 172.979 30.1915 172.544 30.1915C171.736 30.2543 171.238 30.9452 171.425 31.7618C171.487 32.013 171.611 32.2015 171.798 32.3271C171.984 32.4527 172.109 32.5784 172.295 32.6412C172.482 32.7668 172.731 32.8296 172.917 32.9552C173.228 33.0809 173.477 33.2065 173.725 33.3949C174.534 34.0231 174.782 35.0281 174.285 35.9075C174.036 36.4728 173.539 36.7868 172.979 36.9125C172.109 37.1009 171.3 37.0381 170.554 36.5984C170.554 36.5984 170.554 36.5984 170.492 36.5984Z" fill="white"/>
<path id="Vector_37" d="M143.825 36.41C143.887 36.5985 143.887 36.7241 143.887 36.9125C143.762 37.0382 143.576 37.0382 143.451 37.0382C143.141 37.101 142.83 37.101 142.457 37.0382C142.021 36.9125 141.773 36.6613 141.586 36.2844C141.462 36.0331 141.4 35.7819 141.4 35.5306C141.4 35.2794 141.337 35.0281 141.337 34.8397C141.337 33.4578 141.337 32.1387 141.337 30.8197V30.4428C141.275 30.4428 141.151 30.4428 141.089 30.4428C140.778 30.4428 140.529 30.4428 140.218 30.4428C140.094 30.38 140.156 30.2543 140.156 30.1915C140.156 30.1287 140.156 30.0031 140.156 29.8775C140.218 29.8775 140.281 29.8146 140.343 29.8146C140.591 29.8146 140.84 29.8146 141.089 29.8146C141.151 29.8146 141.213 29.8146 141.275 29.8146V28.5584C141.524 28.4328 141.711 28.3699 141.959 28.3071C142.021 28.8096 141.959 29.3121 141.959 29.8775C142.581 29.8775 143.203 29.8775 143.887 29.8775C143.887 30.0031 143.887 30.0659 143.887 30.1287C143.887 30.1915 143.887 30.3172 143.887 30.38C143.825 30.4428 143.762 30.4428 143.7 30.4428C143.203 30.4428 142.705 30.4428 142.27 30.4428C142.208 30.4428 142.084 30.4428 142.021 30.4428C142.021 30.5684 142.021 30.6312 142.021 30.694C142.021 32.1387 142.021 33.5834 142.021 34.9653C142.021 35.2794 142.021 35.5306 142.084 35.7819C142.146 35.9075 142.146 35.9703 142.208 36.096C142.332 36.3472 142.581 36.4728 142.892 36.4728C143.141 36.4728 143.389 36.4728 143.638 36.41C143.7 36.41 143.762 36.41 143.825 36.41Z" fill="white"/>
<path id="Vector_38" d="M217.679 29.7518C218.052 29.7518 218.425 29.7518 218.799 29.7518C218.799 29.6262 218.799 29.5005 218.799 29.3121C218.799 29.1865 218.799 28.998 218.799 28.8724V28.4327C218.985 28.3071 219.234 28.2443 219.482 28.1187C219.545 28.6212 219.482 29.1865 219.545 29.689C220.166 29.689 220.788 29.689 221.41 29.689C221.472 29.7518 221.472 29.8774 221.472 29.9402C221.472 30.003 221.472 30.1287 221.472 30.2543C221.41 30.2543 221.348 30.2543 221.286 30.2543C220.788 30.2543 220.291 30.2543 219.855 30.2543C219.793 30.2543 219.669 30.2543 219.545 30.2543C219.545 30.3171 219.545 30.3799 219.545 30.4427C219.545 31.8874 219.545 33.395 219.545 34.8397C219.545 35.0909 219.545 35.405 219.607 35.6562C219.669 35.7819 219.669 35.8447 219.731 35.9075C219.856 36.1587 220.104 36.3472 220.415 36.3472C220.726 36.3472 220.975 36.3472 221.286 36.2844C221.348 36.3472 221.348 36.4728 221.348 36.5356C221.348 36.5984 221.348 36.6612 221.348 36.7869C221.223 36.9125 221.099 36.9125 220.912 36.9125C220.539 36.9753 220.229 36.9753 219.855 36.9125C219.482 36.7869 219.172 36.5356 218.985 36.2215C218.861 35.9703 218.799 35.719 218.799 35.4678C218.799 35.2165 218.736 34.9653 218.736 34.7769C218.736 33.395 218.736 32.0759 218.736 30.694C218.736 30.5684 218.736 30.4427 218.736 30.3171C218.363 30.3171 217.99 30.3171 217.617 30.3171C217.617 30.1915 217.617 30.1287 217.617 30.003C217.679 29.9402 217.679 29.8774 217.679 29.7518Z" fill="white"/>
<path id="Vector_39" d="M148.733 30.3171C148.36 30.3171 147.987 30.3171 147.614 30.3171C147.551 30.1287 147.614 29.9402 147.614 29.7518C147.987 29.689 148.36 29.7518 148.733 29.689C148.795 29.2493 148.733 28.8724 148.733 28.4327C148.795 28.3071 148.981 28.3071 149.044 28.2443C149.168 28.1815 149.23 28.1815 149.354 28.1187C149.417 28.6212 149.354 29.1237 149.354 29.689C149.603 29.689 149.79 29.689 149.976 29.689C150.163 29.689 150.349 29.689 150.598 29.689H151.22C151.282 29.8774 151.282 30.0659 151.22 30.2543C151.158 30.2543 151.095 30.2543 150.971 30.2543C150.536 30.2543 150.038 30.2543 149.603 30.2543H149.292C149.292 30.3171 149.292 30.3799 149.292 30.4427C149.292 31.9503 149.292 33.395 149.292 34.9025C149.292 35.1537 149.354 35.3422 149.354 35.5934C149.354 35.719 149.417 35.7819 149.479 35.9075C149.603 36.2215 149.852 36.41 150.225 36.41C150.536 36.41 150.785 36.41 151.095 36.3472C151.22 36.5356 151.158 36.6612 151.22 36.8497C151.095 36.9753 150.971 36.9753 150.785 37.0381C150.474 37.1009 150.101 37.1009 149.79 37.0381C149.354 36.9125 149.044 36.6612 148.857 36.2215C148.733 35.9703 148.671 35.6562 148.671 35.3422C148.671 35.1537 148.671 34.9653 148.671 34.7769C148.671 33.395 148.671 32.0131 148.671 30.6312C148.733 30.5684 148.733 30.4427 148.733 30.3171Z" fill="white"/>
<path id="Vector_40" d="M191.199 36.9126H190.577C190.515 36.787 190.515 36.6613 190.515 36.5985C190.515 35.2166 190.515 33.8348 190.515 32.39C190.515 31.5107 190.515 30.6941 190.453 29.8147V29.7519C190.64 29.6891 190.826 29.7519 191.075 29.7519C191.137 29.9403 191.075 30.066 191.075 30.1916C191.075 30.38 191.075 30.5057 191.075 30.6941C191.075 30.8197 191.075 30.9453 191.075 31.1966C191.137 31.0082 191.199 30.9453 191.261 30.8825C191.386 30.5685 191.634 30.3172 191.883 30.066C192.318 29.6891 192.816 29.5635 193.313 29.6263C193.375 29.8147 193.313 30.066 193.375 30.2544C193.313 30.2544 193.189 30.2544 193.127 30.2544C192.567 30.2544 192.132 30.5057 191.759 30.9453C191.448 31.385 191.261 31.8875 191.199 32.39C191.137 32.6413 191.137 32.8926 191.137 33.1438C191.137 34.2744 191.137 35.4051 191.137 36.5357V36.9126H191.199Z" fill="white"/>
<path id="Vector_41" d="M145.492 29.7518H146.114C146.114 29.8146 146.114 29.8774 146.114 29.9403C146.114 32.2015 146.114 34.4628 146.114 36.7241C146.114 36.7869 146.114 36.8497 146.114 36.9125C145.99 36.9753 145.865 36.9753 145.803 36.9753C145.679 36.9753 145.617 36.9753 145.554 36.9753C145.492 36.9753 145.492 36.9125 145.492 36.9125C145.492 36.9125 145.492 36.9125 145.492 36.8497C145.492 34.5884 145.492 32.2644 145.492 30.0031C145.492 29.9403 145.492 29.8146 145.492 29.7518Z" fill="white"/>
<path id="Vector_42" d="M152.836 29.7518C152.898 29.7518 152.96 29.7518 153.022 29.7518C153.209 29.7518 153.333 29.7518 153.52 29.7518C153.582 29.8775 153.582 30.0031 153.582 30.1287C153.582 32.1387 153.582 34.2116 153.582 36.2216V36.9125C153.396 36.9753 153.147 36.9125 152.96 36.9753C152.898 36.8497 152.898 36.7241 152.898 36.5985C152.898 34.5884 152.898 32.6412 152.898 30.6312V29.7518H152.836Z" fill="white"/>
</g>
<path id="Vector_43" d="M145.312 27.7418C145.312 27.4906 145.375 27.3021 145.561 27.1765C145.748 26.9881 146.059 27.0509 146.245 27.2393C146.494 27.4906 146.494 27.8675 146.307 28.1187C146.183 28.3072 145.996 28.3072 145.748 28.3072C145.561 28.2443 145.437 28.1187 145.375 27.9303C145.313 27.8675 145.312 27.7418 145.312 27.7418Z" fill="white"/>
<path id="Vector_44" d="M153.768 27.6161C153.768 28.0558 153.519 28.307 153.208 28.307C153.022 28.307 152.897 28.2442 152.773 28.0558C152.649 27.8045 152.649 27.4905 152.773 27.302C153.022 26.9252 153.457 26.988 153.643 27.3649C153.706 27.4905 153.706 27.5533 153.768 27.6161Z" fill="white"/>
</g>
<g id="Group_6">
<path id="Vector_45" d="M24.0005 29.3384L33.429 38.6941L40.5004 37.5862L41.1207 37.7093L42.1132 36.9707L47.3237 35.6781L47.7579 35.8012L47.6339 35.3088L49.5568 32.2928L43.9741 33.0314L40.5004 31.6158L51.3557 26.2609L51.4177 26.9379L51.5418 29.2769L54.0229 29.3384L57.2485 24.599L62.0248 18.8133L51.8519 14.4432L48.0681 14.8125L48.5023 10.627L47.1997 10.6886L46.7655 9.51912L46.3933 10.8117L45.1527 11.0579L43.6019 10.5039L43.2918 8.34966L42.9816 8.28811L38.6395 7.11865L31.3821 9.64223L27.3501 12.8429L24.3107 17.1514L20.4648 19.121L18.9141 28.292L24.0005 29.3384Z" fill="white"/>
<path id="Vector_46" d="M46.9519 10.0116C46.8898 9.82697 46.8278 9.70387 46.7658 9.58077C46.6418 9.76542 46.6418 9.95007 46.5177 10.0732C46.2696 10.0732 46.0215 10.1347 45.7734 10.2578C45.5874 10.3809 45.3393 10.4425 45.1532 10.5656C45.0912 10.6271 45.0912 10.7502 45.1532 10.8733C45.4633 11.058 45.7734 11.3042 46.0835 11.5504C45.9595 11.9197 45.8354 12.289 45.7114 12.7198C46.1456 12.4736 46.3937 12.1043 46.8278 12.0428C47.1379 12.289 47.4481 12.4736 47.8202 12.7198C47.8202 12.6583 47.8202 12.5967 47.8202 12.5967C47.6961 12.289 47.6341 11.9812 47.5101 11.6735C47.5101 11.6119 47.5101 11.6119 47.4481 11.5504C47.5721 11.3657 47.7582 11.3042 47.9442 11.1811C48.1303 11.058 48.2544 10.9349 48.4404 10.8118C48.3164 10.8118 48.3164 10.7502 48.2544 10.7502C47.9442 10.7502 47.6341 10.7502 47.324 10.7502C47.2 10.7502 47.2 10.7502 47.1379 10.5656C47.262 10.5656 47.324 10.5656 47.386 10.5656C47.4481 10.5656 47.5101 10.5656 47.5101 10.504C47.5721 10.4425 47.5721 10.4425 47.6341 10.504C47.8822 10.5656 48.1923 10.5656 48.4404 10.5656C48.8746 10.504 49.3087 10.6271 49.6809 10.8118C49.7429 10.8118 49.8049 10.8733 49.8049 10.8733C50.115 10.9349 50.3011 11.1195 50.4872 11.3657C50.7353 11.6735 50.7973 11.9812 50.6732 12.3505C50.5492 12.6583 50.3631 12.966 50.115 13.1507C49.929 13.3354 49.6809 13.52 49.4948 13.7047C49.2467 13.8893 49.0606 14.074 48.8126 14.3202C48.7505 14.3817 48.7505 14.4433 48.6885 14.4433C48.6885 14.5048 48.7505 14.5048 48.8126 14.5048C49.1227 14.5048 49.3708 14.5048 49.6809 14.4433C49.991 14.4433 50.2391 14.3817 50.5492 14.3817C50.8593 14.3817 51.2315 14.3202 51.5416 14.1971C51.9137 14.1355 52.3479 14.074 52.72 13.9509C52.9061 13.8893 53.1542 13.8893 53.3402 13.8278C53.5883 13.7662 53.8364 13.7047 54.0845 13.6431C54.1465 13.6431 54.2706 13.5816 54.3326 13.5816C54.7048 13.4585 55.1389 13.3354 55.511 13.2738C56.0072 13.1507 56.5034 13.0892 56.9996 12.9661C57.4958 12.843 57.992 12.7198 58.4882 12.6583C58.9223 12.5967 59.4185 12.4736 59.8527 12.4121C61.4653 12.1043 63.0158 11.8581 64.6284 11.4888C65.3727 11.4273 66.055 11.1811 66.7992 10.9964C67.1094 10.9349 67.4195 10.8733 67.6676 10.8733C67.9157 10.8118 68.1017 10.8118 68.3498 10.7502C68.722 10.6887 69.0321 10.6271 69.4042 10.5656C69.9004 10.504 70.3966 10.3809 70.8928 10.3194C71.2029 10.2578 71.513 10.2578 71.8231 10.2578C72.2573 10.2578 72.6294 10.2578 73.0636 10.2578C73.4357 10.2578 73.7458 10.3194 74.056 10.3809C74.18 10.3809 74.242 10.4425 74.3661 10.504C74.4901 10.5656 74.5521 10.6271 74.6142 10.6887C74.6762 10.7502 74.7382 10.8733 74.8623 10.9349C74.9243 10.9964 75.0483 11.058 75.1103 11.058C75.1103 11.1195 75.0483 11.1195 75.0483 11.1811C75.1103 11.2426 75.2344 11.3042 75.2964 11.3657C75.2964 11.4273 75.2964 11.4888 75.2964 11.6119C75.6065 11.7966 75.9787 11.9197 76.2888 12.0428C76.4128 12.1043 76.5989 12.1043 76.7229 12.1043C77.4672 12.1043 78.2115 12.1043 78.9558 12.1043C79.1418 12.1043 79.3279 12.1043 79.452 12.1043C79.514 12.1043 79.638 12.1043 79.7001 12.1043C80.2583 12.0428 80.8785 11.9812 81.4367 11.9197C81.4987 11.9197 81.6228 11.9197 81.6848 11.9197C82.4291 11.9197 83.1113 11.8581 83.8556 11.7966C84.1657 11.7966 84.5379 11.735 84.848 11.735C85.3442 11.6735 85.9024 11.6735 86.3985 11.6735C86.7087 11.6735 87.0188 11.6735 87.3909 11.6119C87.577 11.6119 87.701 11.6735 87.8251 11.735C87.8871 11.735 87.8871 11.7966 87.9491 11.7966C88.1352 12.1043 88.1972 12.4121 88.2592 12.7814V12.8429C88.2592 13.0892 88.1352 13.2738 87.8871 13.3354C87.3909 13.4585 86.8947 13.7047 86.4606 13.8893C86.3986 13.9509 86.2745 13.9509 86.2125 14.0124C86.2125 14.1355 86.2125 14.1971 86.3365 14.1971C86.5226 14.3202 86.7707 14.3817 86.9567 14.3817C87.1428 14.3817 87.3289 14.3817 87.515 14.2586C87.701 14.074 87.9491 13.9509 88.1972 13.7662C88.3833 13.6431 88.5694 13.6431 88.7554 13.6431C88.8795 13.6431 89.0035 13.7047 89.0655 13.8278C89.1276 13.9509 89.2516 14.0124 89.3757 14.1355C89.4997 14.1971 89.6238 14.3202 89.6858 14.4433C89.7478 14.5048 89.8098 14.5664 89.8098 14.6279C89.8718 14.751 89.9339 14.8741 90.1199 14.9357C90.1199 15.0588 90.182 15.2434 90.306 15.305C90.306 15.305 90.368 15.3665 90.368 15.4281C90.43 15.6127 90.4921 15.8589 90.4921 16.0436C90.5541 16.4744 90.43 16.9053 90.0579 17.213C89.9339 17.3361 89.8098 17.3977 89.6237 17.4592C88.9415 17.767 88.3213 18.0132 87.577 18.0747C87.1428 18.1363 86.6466 18.1978 86.2125 18.3209C85.5922 18.4441 84.972 18.5056 84.4138 18.6287C83.9797 18.6903 83.6075 18.8134 83.1733 18.8749C82.6151 18.998 82.0569 19.0596 81.4987 19.1211C80.8785 19.1827 80.2583 19.2442 79.638 19.3058C79.576 19.3058 79.452 19.3058 79.3899 19.3058C79.2659 19.3058 79.1418 19.3058 78.9558 19.3058C78.7077 19.3058 78.4596 19.3673 78.2115 19.3673C78.0254 19.3673 77.8394 19.4289 77.6533 19.4904C76.909 19.6135 76.2268 19.7982 75.4825 19.9213C74.9863 19.9828 74.4281 20.0444 73.9319 20.1675C73.7458 20.229 73.4977 20.229 73.3117 20.2906C72.9395 20.4137 72.5674 20.4752 72.1332 20.4752C71.451 20.5368 70.7067 20.7214 70.0245 20.9061C69.4662 21.0907 68.846 21.2754 68.2878 21.3985C67.6056 21.5831 66.9233 21.8293 66.241 22.014C65.993 22.0755 65.6828 22.1371 65.4347 22.1986C64.8145 22.3833 64.2563 22.5064 63.6361 22.691C63.388 22.7526 63.1399 22.8757 62.8918 22.9988C61.5893 23.4912 60.2248 23.9221 58.9223 24.4145C58.4882 24.5376 58.054 24.7222 57.6819 24.8453C57.4958 24.9069 57.3097 25.03 57.1237 25.2146C57.0616 25.2762 56.9996 25.3993 56.9376 25.4608C56.0693 26.7534 55.1389 28.0459 54.2706 29.4001C54.2086 29.4616 54.2086 29.5232 54.1465 29.5847C54.0225 29.5847 53.8364 29.5847 53.7124 29.5847C53.4023 29.5847 53.0921 29.5847 52.72 29.6463C52.658 29.6463 52.658 29.6463 52.596 29.6463C52.2238 29.6463 51.8517 29.6463 51.5416 29.6463H51.4795C51.4175 29.5847 51.4175 29.4616 51.4175 29.4001C51.4175 28.723 51.4175 27.9844 51.4175 27.3073C51.4175 27.1842 51.4175 27.1227 51.4175 26.9996C51.3555 26.9996 51.2935 26.9996 51.2315 27.0611C50.9213 27.1842 50.5492 27.3073 50.2391 27.4304C49.8669 27.5535 49.4948 27.7382 49.1227 27.8613C48.9366 27.9228 48.8126 27.9844 48.6265 28.0459C48.1923 28.169 47.6961 28.3537 47.324 28.5384C46.9519 28.723 46.6418 28.9076 46.2696 29.0923C45.9595 29.277 45.6494 29.4001 45.3393 29.5847C44.9051 29.8309 44.4709 30.1387 44.0368 30.3849C43.5406 30.6926 43.0444 31.1235 42.6102 31.4928C42.4242 31.6774 42.3622 31.8621 42.3622 32.1083C42.8583 32.2929 43.2925 32.416 43.8507 32.2929C44.0988 32.2314 44.3469 32.2314 44.595 32.2314C44.657 32.2314 44.719 32.2314 44.719 32.1083C44.8431 32.1083 44.9671 32.1083 45.0912 32.1083C45.5253 32.1083 45.9595 31.9852 46.3316 31.9236C46.8278 31.8005 47.386 31.739 47.8822 31.6774C48.1303 31.6774 48.3164 31.6774 48.5645 31.5543H48.6265C49.0607 31.5543 49.4948 31.5543 49.867 31.5543C50.053 31.5543 50.2391 31.6159 50.3631 31.739C50.4252 31.8005 50.4252 31.8005 50.4872 31.8621C50.5492 31.9852 50.5492 32.1083 50.5492 32.2314C50.5492 32.2929 50.5492 32.3545 50.4872 32.416C50.3631 32.6622 50.2391 32.9084 50.115 33.1546C50.053 33.2777 49.991 33.4008 49.929 33.5239C49.929 33.5855 49.929 33.5855 49.929 33.647H49.991C50.3631 33.5855 50.7353 33.5855 51.1694 33.647C51.3555 33.647 51.4795 33.647 51.6036 33.5855C51.6656 33.5855 51.6656 33.5855 51.7276 33.5239C52.4099 33.2777 53.1542 33.1546 53.8985 32.9084C54.2706 32.7853 54.6427 32.6622 54.9528 32.6007C55.263 32.5391 55.6971 32.416 56.0693 32.3545C56.6895 32.2314 57.3097 32.0467 57.93 31.9236C58.6122 31.739 59.2945 31.6159 60.0387 31.4312C60.2868 31.3697 60.5349 31.3697 60.783 31.3081C61.2172 31.2466 61.5893 31.185 62.0235 31.0619C62.3336 31.0004 62.5817 30.8773 62.8918 30.8773C63.1399 30.8773 63.388 30.8157 63.6361 30.7542C63.8221 30.6926 64.0702 30.6926 64.2563 30.8157C64.3804 30.9388 64.3804 31.0004 64.3804 31.1235C64.3804 31.3081 64.3183 31.4312 64.1323 31.4928C63.5741 31.739 63.0158 31.9852 62.3956 32.1698C62.0235 32.2314 61.7134 32.2929 61.3412 32.3545C61.0311 32.416 60.721 32.4776 60.4729 32.5391C59.7906 32.6622 59.1704 32.7853 58.4882 32.8469C57.5578 32.97 56.6895 33.1546 55.7591 33.2777C55.0769 33.4008 54.3946 33.5855 53.7744 33.8317C52.8441 34.201 51.9757 34.5088 50.9834 34.755C50.6732 34.8165 50.3631 35.0012 49.991 35.0627C49.8049 35.1243 49.5568 35.1858 49.3708 35.2474C49.1227 35.3089 48.8746 35.3705 48.5645 35.432C48.3164 35.4936 48.0683 35.5551 47.7582 35.6782C47.7582 35.6167 47.7582 35.6167 47.6961 35.5551C47.6961 35.432 47.6961 35.3705 47.5721 35.3089L47.5101 35.2474C47.4481 35.0627 47.4481 34.9396 47.386 34.755C47.6341 34.5088 47.9442 34.3241 48.2544 34.0779C47.8202 34.0164 47.386 34.1395 47.0139 34.0163C46.9519 33.7701 46.8278 33.5239 46.7658 33.2777C46.7658 33.2162 46.7038 33.1546 46.7038 33.1546C46.7038 33.0931 46.6418 33.0931 46.5797 33.0931C46.4557 33.2777 46.4557 33.4008 46.3937 33.5855C46.3316 33.7701 46.2696 33.8932 46.2696 34.0779C45.8975 34.201 45.4633 34.1394 45.0912 34.1394C45.0912 34.201 45.0912 34.201 45.1532 34.2625C45.3393 34.3856 45.5253 34.5703 45.7734 34.6934C45.8355 34.755 45.8975 34.8165 46.0215 34.8781C45.9595 35.2474 45.7734 35.6167 45.7114 36.0475C45.8354 36.0475 45.8975 35.9244 45.9595 35.8629C46.0215 35.8013 46.1456 35.7398 46.2076 35.6782C46.2696 35.6167 46.3937 35.5551 46.4557 35.4936C46.5177 35.432 46.6418 35.3705 46.7038 35.3705C46.9519 35.4936 47.262 35.7398 47.386 35.8629C47.1379 35.986 46.8898 36.0475 46.6417 36.1091C46.3316 36.2322 46.0215 36.2937 45.7114 36.4168C45.6494 36.4168 45.6494 36.4784 45.5874 36.4784C45.4013 36.4784 45.2152 36.5399 45.0292 36.663C44.719 36.7861 44.4089 36.8477 44.0988 36.9092C43.6646 36.9708 43.2925 37.0939 42.8583 37.217C42.4242 37.4632 41.928 37.5247 41.4318 37.7094C41.3698 37.7094 41.3698 37.7094 41.3078 37.7709C41.3078 37.8325 41.2457 37.894 41.2457 37.9556C41.1837 37.9556 41.1837 37.9556 41.1217 37.9556C40.9356 37.894 40.8116 37.9556 40.6255 38.0171C40.0673 38.2633 39.5091 38.5095 38.8889 38.6942C38.3927 38.8788 37.8345 39.125 37.3383 39.3097C36.8421 39.4944 36.3459 39.679 35.9118 39.8637C35.1675 40.1714 34.4232 40.4792 33.6789 40.7254C32.8106 41.0331 31.9423 41.3409 31.074 41.7102C29.8335 42.2026 28.593 42.695 27.2905 43.1874C26.9184 43.3105 26.6083 43.4336 26.2362 43.5567C25.74 43.7413 25.3058 43.926 24.8096 44.1106C24.6856 44.1722 24.5615 44.2338 24.4995 44.2338C24.1274 44.3569 23.7552 44.5415 23.3831 44.6646C22.8869 44.8493 22.3907 44.9724 21.8945 45.0955C21.5224 45.2186 21.1503 45.2801 20.7161 45.3417C20.0959 45.4648 19.4756 45.6494 18.8554 45.6494C18.6073 45.6494 18.2972 45.711 18.0491 45.711C17.801 45.711 17.6149 45.711 17.3669 45.6494C17.2428 45.6494 17.1188 45.6494 17.0567 45.6494C16.7466 45.711 16.4985 45.711 16.1884 45.6494C16.0644 45.6494 15.8783 45.6494 15.7543 45.5879C15.4441 45.5263 15.134 45.5263 14.8239 45.4648C14.6999 45.4648 14.6378 45.4032 14.5138 45.4032C14.0176 45.2186 13.5834 45.0339 13.1493 44.7261C12.7771 44.4799 12.467 44.2337 12.2189 43.8644C11.9708 43.4951 11.8468 43.0643 11.7848 42.6334C11.7848 42.3872 11.8468 42.2026 11.8468 41.9564C11.8468 41.8948 11.8468 41.7717 11.9088 41.6486C11.8468 41.6486 11.7848 41.6486 11.7848 41.7102C11.5987 41.7717 11.4126 41.8948 11.2266 41.9564C11.0405 42.0179 10.9165 42.0795 10.7304 42.141C10.6063 42.141 10.5443 42.141 10.4203 42.0795C10.1722 41.8948 10.1722 41.8948 10.1102 41.5255C10.1102 41.4024 10.0481 41.3409 10.0481 41.2178C9.92409 40.8485 9.98611 40.5407 10.1722 40.233C10.2962 39.9868 10.4203 39.7406 10.6063 39.4944C10.9785 38.9404 11.3506 38.3249 11.7848 37.7709C12.1569 37.3401 12.5291 36.9092 12.9632 36.4784C13.1493 36.2937 13.2733 36.1091 13.4594 35.986C13.7695 35.6782 14.0796 35.432 14.3897 35.1858C14.8239 34.8781 15.196 34.5088 15.6302 34.1394C15.8163 33.9548 16.0644 33.8317 16.3125 33.647C16.4365 33.5855 16.5606 33.4624 16.6226 33.4008C16.6846 33.4008 16.6846 33.3393 16.6846 33.2162C16.5606 33.2162 16.4365 33.2777 16.3745 33.2777C16.3125 33.2777 16.1884 33.2777 16.1264 33.2777C15.8783 33.2777 15.5682 33.3393 15.3201 33.4008C15.196 33.4624 15.072 33.4624 14.948 33.5239C14.4518 33.7086 13.9556 33.8932 13.4594 34.0779C13.0252 34.201 12.5911 34.3857 12.1569 34.3857C11.8468 34.4472 11.5367 34.3857 11.2266 34.3241C11.1025 34.3241 10.9785 34.2626 10.9165 34.1394C10.8544 34.0779 10.8544 34.0779 10.7924 34.0163C10.1722 33.4624 9.86206 32.7238 9.55195 31.9236C9.4279 31.4928 9.30385 31.0619 9.24183 30.6311C9.17981 30.2618 9.17981 29.8309 9.24183 29.4616C9.24183 29.277 9.30385 29.1539 9.30385 28.9692C9.36588 28.6614 9.48992 28.4152 9.67599 28.2306C9.73802 28.169 9.73802 28.169 9.80004 28.169C10.4823 27.6151 11.1645 26.9996 11.9088 26.4456C12.1569 26.261 12.343 26.0763 12.5911 25.8917C12.6531 25.8301 12.6531 25.8301 12.7151 25.7686C12.5911 25.707 12.467 25.6455 12.343 25.6455C12.2189 25.5839 12.0949 25.4608 12.0329 25.3377C11.9708 25.2146 11.9708 25.0915 12.0329 24.9684C12.0949 24.9069 12.1569 24.8453 12.2189 24.7838C12.5911 24.476 12.9632 24.1683 13.3974 23.9221C13.7075 23.7374 14.0796 23.4912 14.3897 23.3065C14.7619 23.0603 15.01 22.691 15.134 22.3217C15.134 22.2602 15.134 22.1986 15.134 22.1371C15.134 22.014 15.072 21.8909 15.072 21.7678C15.01 21.5216 14.8239 21.3369 14.6378 21.2138C14.5138 21.1523 14.3897 21.0907 14.2657 20.9676C14.2037 20.9061 14.1417 20.8445 14.1417 20.7214C14.1417 20.4137 14.2037 20.1059 14.3277 19.8597C14.5138 19.552 14.6999 19.2442 15.01 18.998C15.5062 18.5672 16.0023 18.1979 16.5606 17.8901C16.9947 17.6439 17.4909 17.3977 17.9251 17.1515C17.9871 17.0899 18.0491 17.0899 18.1111 17.0284C18.1111 17.0284 18.1111 16.9668 18.1732 16.9668H17.739C17.6149 16.8437 17.4909 16.7206 17.3669 16.536C17.3669 16.4744 17.3048 16.4744 17.3048 16.4129C17.2428 16.2282 17.2428 16.0436 17.1808 15.8589C17.1808 15.7974 17.1808 15.7974 17.1808 15.7358C17.1808 15.4281 17.2428 15.305 17.615 15.2434H17.677C17.9871 15.1203 18.1732 15.305 18.3592 15.4896C18.4212 15.5512 18.4212 15.6127 18.4212 15.6743C18.4833 15.9205 18.5453 16.2282 18.5453 16.536C18.5453 16.5975 18.5453 16.7206 18.5453 16.7822C18.6073 16.7822 18.6693 16.7206 18.6693 16.7206C18.9174 16.5975 19.1035 16.4744 19.3516 16.3513C19.5377 16.2282 19.7237 16.1667 19.9718 16.0436C20.344 15.8589 20.7161 15.6743 21.0882 15.4281C21.2743 15.305 21.5224 15.1819 21.7085 15.0588C21.9566 14.9357 22.1426 14.751 22.3907 14.6279C22.4528 14.5664 22.5768 14.5048 22.6388 14.4433C22.6388 14.4433 22.7008 14.3817 22.7008 14.3202C22.6388 14.3202 22.5768 14.3202 22.5148 14.3202C22.1426 14.4433 21.7085 14.5048 21.3363 14.6279C21.1503 14.6895 20.9642 14.6279 20.7781 14.5664C20.7781 14.5664 20.7161 14.5664 20.7161 14.5048C20.6541 14.3202 20.53 14.1971 20.53 14.0124C20.53 13.6431 20.53 13.2738 20.7161 12.9045C20.8402 12.6583 20.9642 12.4736 21.2123 12.289C21.5844 12.0428 21.9566 11.7966 22.3287 11.6119C22.8249 11.4273 23.259 11.1811 23.6932 10.9349C23.8793 10.8118 24.0654 10.7502 24.2514 10.6887C24.4995 10.5656 24.7476 10.4425 24.9957 10.3194C26.2362 9.58077 27.4766 8.90371 28.7791 8.34976C29.0892 8.22666 29.3993 8.042 29.7715 7.9189C30.0196 7.7958 30.2677 7.6727 30.5778 7.61115C30.8879 7.48805 31.198 7.36495 31.5081 7.24185C31.6322 7.1803 31.6942 7.1803 31.7562 7.11875C32.5005 6.87254 33.2448 6.50324 33.989 6.31859C34.8574 6.07239 35.7877 5.76463 36.656 5.45688C37.4003 5.21068 38.0826 4.96447 38.8268 4.77982C39.5711 4.53362 40.3774 4.34897 41.1217 4.10277C41.6799 3.91812 42.1761 3.79501 42.7343 3.61036C43.5406 3.30261 44.3469 3.11796 45.2152 2.93331C46.0215 2.74865 46.8278 2.50245 47.6341 2.25625C48.2544 2.0716 48.9366 1.88695 49.5568 1.70229C50.2391 1.51764 50.9213 1.39454 51.5416 1.20989C51.8517 1.14834 52.2238 1.02524 52.5339 0.963689C53.4023 0.779037 54.2706 0.532834 55.2009 0.409733C55.263 0.409733 55.325 0.409734 55.387 0.348183C56.0072 0.163531 56.6895 0.101981 57.3097 0.0404301C57.7439 -0.0211205 58.178 -0.0211214 58.6122 0.10198C58.7362 0.10198 58.8603 0.163528 58.9843 0.225079C59.1084 0.28663 59.2945 0.409732 59.4185 0.471282C59.6666 0.594383 59.8527 0.779036 59.9767 1.02524C60.2248 1.39454 60.4109 1.70229 60.659 2.0716C60.9691 2.50245 61.2792 2.93331 61.5273 3.48726C61.6513 3.67191 61.7134 3.85657 61.7754 4.10277C61.8374 4.22587 61.8374 4.34897 61.8994 4.47207C61.9615 4.53362 61.9615 4.59517 61.9615 4.71827C61.9615 5.21068 61.7754 5.57998 61.4653 5.88774C61.4032 5.94929 61.3412 6.01083 61.2792 6.07238C60.845 6.38014 60.4729 6.62634 59.9767 6.81099C58.9223 7.1803 57.8679 7.5496 56.8135 7.7958C56.2553 7.9189 55.6971 8.042 55.2009 8.1651C54.5187 8.28821 53.7744 8.47286 53.0922 8.59596C52.782 8.65751 52.4719 8.71906 52.1618 8.71906C52.0998 8.71906 52.0378 8.71906 51.9757 8.71906C51.4175 8.84216 50.8593 8.96526 50.3011 9.02681C49.7429 9.08836 49.1847 9.21146 48.6265 9.39612C48.1923 9.51922 47.8202 9.58077 47.386 9.64232C47.1379 9.88852 47.0139 9.88852 46.9519 10.0116ZM37.9585 24.4145C37.8345 24.4145 37.7725 24.4145 37.7104 24.4145C37.6484 24.4145 37.5864 24.4145 37.5244 24.4145C37.3383 24.3529 37.3383 24.2914 37.2763 24.1683C37.2763 24.1067 37.2763 24.1067 37.2763 24.0452C37.2763 23.3065 37.2763 22.6295 37.2763 21.8909C37.2763 21.5216 37.2763 21.5216 37.5244 21.2138C37.5864 21.1523 37.5864 21.0907 37.6484 21.0907C37.7104 21.0292 37.8345 20.9061 37.9585 20.9061C38.5787 20.5983 39.385 20.9061 39.5091 21.7062C39.5711 21.8909 39.5711 22.0755 39.5711 22.2602C39.5711 22.4448 39.5711 22.6295 39.5711 22.7526C39.5711 22.8757 39.5711 22.9988 39.5711 23.1219C39.5711 23.3681 39.5711 23.6758 39.5711 23.9221C39.5711 24.0452 39.5711 24.1067 39.5711 24.2298C39.5711 24.7838 39.5711 25.3993 39.5711 25.9532C39.5711 26.1379 39.5711 26.3225 39.6331 26.5072C39.6331 26.5687 39.6952 26.6303 39.6952 26.6918C40.7496 26.6918 41.804 26.6918 42.8583 26.6918C42.8583 26.6303 42.9204 26.5687 42.9204 26.5687C42.9824 26.0763 42.9824 25.6455 42.9824 25.1531C42.9824 24.9684 42.9204 24.7838 42.9204 24.5991C42.9204 24.476 42.8583 24.476 42.7963 24.476C42.7343 24.476 42.6723 24.476 42.6102 24.476C42.4862 24.476 42.3622 24.476 42.2381 24.3529C42.2381 24.1683 42.2381 23.9836 42.1761 23.799C42.1761 23.3065 42.1761 22.7526 42.1761 22.2602C42.1761 21.6447 42.1141 21.0292 41.928 20.4137C41.866 20.1675 41.7419 19.9828 41.6179 19.7982C40.8116 18.7518 39.7572 18.4441 38.5167 18.6287C37.8965 18.8134 37.3383 19.0596 36.9041 19.6135C36.8421 19.6751 36.7801 19.7366 36.7181 19.7982C36.656 19.8597 36.594 19.8597 36.594 19.9213C36.4079 19.7982 36.2839 19.6751 36.1599 19.4904C35.7877 19.0596 35.2915 18.8134 34.7333 18.6903C34.4852 18.6287 34.2371 18.5672 33.989 18.6287C33.3688 18.7518 32.7486 18.998 32.3144 19.4904C32.3144 19.4904 32.2524 19.552 32.1904 19.552C32.1284 19.3058 32.1283 19.1211 32.0663 18.9365C31.9423 18.9365 31.8182 18.8749 31.7562 18.8749C31.198 18.8749 30.6398 18.8749 30.0196 18.8749C29.8335 18.8749 29.5854 18.8749 29.3993 18.8749C29.1512 18.8749 28.9652 18.998 28.9652 19.3058V19.3673C28.9652 19.7982 29.0272 20.2906 29.0272 20.7214C29.0272 20.8445 29.0892 21.0292 29.2133 21.1523C29.3373 21.1523 29.5234 21.1523 29.6474 21.1523C29.7094 21.1523 29.7715 21.1523 29.8335 21.1523C29.8335 21.46 29.8955 21.7678 29.8955 22.014C29.8955 22.0755 29.8955 22.0755 29.8955 22.1371C29.8335 22.2602 29.8955 22.3217 29.8955 22.4448C29.9575 22.8141 29.9575 23.1834 29.8955 23.6143C29.8955 23.8605 29.8955 24.1067 29.8955 24.3529C29.8955 24.4145 29.8955 24.476 29.8955 24.5376C29.7715 24.5991 29.6474 24.6607 29.5234 24.6607C29.3993 24.6607 29.2753 24.6607 29.1512 24.7222C28.9652 25.2146 29.0272 26.5072 29.2133 26.938C29.2753 26.938 29.3373 26.938 29.3993 26.938C29.8335 26.938 30.2677 26.938 30.7018 26.938C30.7638 26.938 30.8879 26.938 30.9499 26.938C31.26 26.938 31.6322 26.938 31.9423 26.938C32.2524 26.938 32.6245 26.938 32.9347 26.938C32.9967 26.938 33.1207 26.938 33.1827 26.8765V26.8149C33.1827 26.261 33.1827 25.6455 33.1827 25.0915C33.1827 24.9069 33.1207 24.7838 32.9967 24.6607C32.8106 24.5991 32.6245 24.6607 32.4385 24.5991C32.3764 24.3529 32.3764 24.1067 32.3764 23.8605C32.3764 23.5527 32.3764 23.245 32.3764 22.8757C32.3764 22.6295 32.3764 22.4448 32.4385 22.1986C32.4385 21.9524 32.5625 21.7678 32.6245 21.5831C32.7486 21.3985 32.8726 21.2138 33.1207 21.1523C33.3068 21.0907 33.4929 21.0292 33.741 21.0907C34.1131 21.1523 34.3612 21.3369 34.4852 21.6447C34.5473 21.8293 34.6093 22.0755 34.6093 22.2602C34.6093 22.5064 34.6093 22.7526 34.6093 22.9988C34.6093 24.1067 34.6093 25.1531 34.6713 26.261C34.6713 26.4456 34.7333 26.6303 34.7333 26.8149C34.7953 26.8149 34.7953 26.8149 34.8574 26.8149C35.7877 26.8149 36.656 26.8149 37.5864 26.8149C37.6484 26.8149 37.7724 26.8149 37.8345 26.7534C37.8965 26.7534 37.9585 26.6918 37.9585 26.6303C37.9585 26.5072 38.0205 26.4456 37.9585 26.3225C37.8965 25.8301 37.8965 25.2762 37.8965 24.7838C37.9585 24.5376 37.9585 24.476 37.9585 24.4145ZM53.7744 29.2154C53.9605 29.0923 54.0225 28.9076 54.1465 28.7845C54.3326 28.5383 54.5187 28.2306 54.7047 27.9844C55.387 26.938 56.1313 25.9532 56.7515 24.9069C56.8135 24.8453 56.8756 24.7222 56.9376 24.6607C56.9996 24.5991 56.9996 24.5376 57.0616 24.5376C57.2477 24.4145 57.3097 24.2298 57.4338 24.0452C57.4958 23.9221 57.5578 23.7374 57.6819 23.6143C57.992 23.1834 58.3021 22.691 58.6122 22.2602C58.9223 21.8293 59.2324 21.3369 59.5425 20.8445C59.6666 20.7214 59.7286 20.6599 59.9147 20.5983C59.9767 20.5983 60.1008 20.5983 60.1628 20.5983C60.4109 20.5368 60.4729 20.4752 60.4729 20.229C60.4729 19.6135 60.4109 19.0596 60.4109 18.444C60.4109 18.444 60.4109 18.444 60.3489 18.3825C59.9767 18.3209 59.6666 18.3209 59.2945 18.3209C58.116 18.3209 56.6895 18.3209 56.3794 18.3825C56.3794 18.5056 56.3174 18.6287 56.3174 18.7518C56.3174 18.8749 56.2553 18.998 56.3174 19.1211C56.3174 19.1827 56.3174 19.2442 56.3174 19.3058C56.3174 19.6135 56.3174 19.9828 56.3174 20.2906C56.3174 20.3521 56.3174 20.4137 56.3794 20.4752C56.5034 20.5368 56.6275 20.5368 56.7515 20.5983C56.6895 20.783 56.5654 20.9676 56.5034 21.1523C56.2553 21.5216 56.0693 21.8909 55.8212 22.1986C55.6971 22.3833 55.6351 22.5064 55.511 22.6295C55.449 22.691 55.449 22.7526 55.387 22.8141C55.387 22.8141 55.325 22.8141 55.263 22.8757C55.263 22.691 55.263 22.5064 55.263 22.3217C55.263 22.1371 55.263 21.9524 55.263 21.7678C55.263 21.5831 55.263 21.3985 55.263 21.2138C55.263 21.0292 55.263 20.8445 55.263 20.6599C55.325 20.5983 55.387 20.5983 55.449 20.5983C55.6351 20.5368 55.6971 20.3521 55.6971 20.1675C55.6351 19.8597 55.6351 19.552 55.6351 19.2442C55.6351 19.0596 55.6351 18.8134 55.6351 18.6287C55.6351 18.5672 55.6351 18.5056 55.5731 18.444C55.449 18.444 55.325 18.444 55.2009 18.444C54.3946 18.444 53.5883 18.444 52.782 18.444C52.658 18.444 52.4719 18.444 52.3479 18.444C52.1618 18.444 52.0378 18.4441 51.8517 18.5672C51.8517 18.8134 51.8517 19.0596 51.8517 19.2442C51.8517 19.4904 51.8517 19.6751 51.8517 19.9213C51.8517 20.1675 51.8517 20.4137 51.9137 20.6599C52.0998 20.6599 52.2859 20.7214 52.4719 20.7214C52.5339 20.7214 52.596 20.7214 52.658 20.7214C52.658 20.783 52.658 20.8445 52.658 20.9061C52.658 21.7062 52.658 22.4448 52.72 23.245C52.72 23.4296 52.72 23.6143 52.72 23.799C52.72 24.7222 52.72 25.6455 52.72 26.5687C52.72 26.6303 52.72 26.7534 52.658 26.8149C52.5339 26.8149 52.3479 26.8765 52.2238 26.8765C52.0998 26.8765 51.9137 26.8765 51.7897 26.938C51.7897 26.9996 51.7897 26.9996 51.7897 26.9996C51.7897 27.3073 51.7276 27.5535 51.7276 27.8613C51.7276 27.9228 51.7276 27.9844 51.7276 27.9844C51.7897 28.1075 51.7897 28.2921 51.7897 28.4152C51.7897 28.5999 51.7897 28.723 51.7897 28.9076C51.7897 28.9692 51.8517 29.0307 51.9137 29.0307C51.9757 29.0307 52.0378 29.0307 52.0998 29.0307C52.658 29.2154 53.2162 29.2154 53.7744 29.2154ZM23.8793 24.476C24.4995 24.1067 25.1818 23.7374 25.802 23.4297C26.6703 22.9372 27.5386 22.4448 28.469 21.9524C28.6551 21.8293 28.7171 21.7062 28.6551 21.5216C28.531 21.0907 28.3449 20.7214 28.0968 20.4137C27.7247 19.9213 27.2906 19.4904 26.7323 19.1827C26.3602 18.998 26.0501 18.8134 25.6159 18.7518C25.4919 18.7518 25.3678 18.6903 25.1818 18.6903C24.9337 18.6287 24.6236 18.5672 24.3755 18.6287C24.1894 18.6287 24.0033 18.6903 23.7552 18.6903C22.9489 18.8134 22.2047 19.1827 21.5844 19.7366C21.5224 19.7982 21.4604 19.7982 21.4604 19.8597C20.7781 20.5368 20.344 21.3369 20.2819 22.2602C20.2199 22.5679 20.2199 22.9372 20.2819 23.245C20.344 23.4912 20.344 23.6758 20.406 23.9221C20.406 23.9836 20.468 24.0452 20.468 24.1067C20.5921 24.476 20.7781 24.8453 21.0262 25.1531C21.2123 25.4608 21.4604 25.707 21.7705 25.9532C22.2667 26.3841 22.8869 26.6303 23.5692 26.8765C23.6312 26.8765 23.7552 26.938 23.8173 26.938C24.4995 26.9996 25.2438 27.0611 25.926 26.8149C26.2982 26.6918 26.6083 26.5687 26.9804 26.3841C27.1045 26.3225 27.1665 26.261 27.2905 26.1994C27.4146 26.0763 27.5386 25.9532 27.5386 25.707C27.5386 25.2762 27.5386 24.7838 27.5386 24.3529C27.5386 24.1683 27.5386 23.9836 27.4146 23.7374C27.3526 23.799 27.2285 23.8605 27.1665 23.9221C26.6703 24.3529 26.1121 24.6607 25.4919 24.7838C25.0577 24.8453 24.6236 24.8453 24.1894 24.6607C23.8173 24.6607 23.8173 24.5991 23.8793 24.476ZM51.4175 23.4912C51.3555 23.4912 51.3555 23.4912 51.2935 23.4912C51.0454 23.4912 50.7973 23.4912 50.5492 23.4912C50.053 23.4912 49.5568 23.4912 49.0606 23.5527C48.9366 23.5527 48.7505 23.6143 48.6265 23.6758C48.5645 23.7374 48.5024 23.799 48.4404 23.8605C48.0683 24.2298 47.5721 24.3529 47.0759 24.2298C46.3937 24.1067 45.8975 23.7374 45.6494 23.0603C45.5874 22.8757 45.5874 22.691 45.5874 22.5064C45.5874 22.3217 45.6494 22.1371 45.7114 21.9524C45.7734 21.7678 45.8354 21.6447 45.8975 21.46C46.2696 21.0292 46.7658 20.7214 47.324 20.7214C47.386 20.7214 47.4481 20.7214 47.5101 20.7214C47.6961 20.7214 47.8822 20.783 48.0683 20.8445C48.1923 20.9061 48.3164 20.9676 48.4404 21.0907C48.5645 21.1523 48.6265 21.2754 48.7505 21.3369C48.8126 21.3985 48.8746 21.3985 48.9366 21.3985C49.4948 21.3985 50.115 21.3985 50.6732 21.3369C50.7353 21.3369 50.8593 21.3369 50.9213 21.2754C50.9834 21.2754 51.0454 21.2138 51.0454 21.0907V21.0292C51.0454 20.4752 51.0454 19.9828 51.0454 19.4289C51.0454 19.1211 51.0454 18.8749 50.9834 18.5672C50.9834 18.5056 50.9834 18.444 50.9213 18.3825C50.2391 18.3209 49.6189 18.3825 48.9986 18.3825C48.9366 18.5056 48.8746 18.5672 48.7505 18.6903C48.6265 18.6287 48.5645 18.6287 48.4404 18.5672C47.8822 18.2594 47.262 18.1979 46.6417 18.2594C46.0215 18.321 45.4633 18.5672 44.9671 18.8749C44.0988 19.4289 43.4786 20.1675 43.1064 21.2138C43.0444 21.46 42.9824 21.7678 42.9204 22.0755C42.8583 22.5679 42.8583 23.0603 43.0444 23.5527C43.3545 24.4145 43.7887 25.2146 44.533 25.7686C45.0292 26.1379 45.5874 26.4456 46.1456 26.5687C46.7038 26.6918 47.324 26.6918 47.8822 26.6303C48.1303 26.5687 48.3784 26.5687 48.5645 26.5072C49.3708 26.1994 50.115 25.707 50.6112 25.03C50.8593 24.6607 51.1074 24.2914 51.2315 23.8605C51.4796 23.7374 51.4796 23.6143 51.4175 23.4912ZM32.2524 35.986C32.3144 35.9244 32.3764 35.9244 32.4385 35.8629C32.6245 35.7398 32.7486 35.6167 32.9347 35.4936C33.0587 35.432 33.1827 35.3089 33.3068 35.3089C33.6789 35.4936 33.927 35.8013 34.2992 35.986C34.1751 35.5551 33.989 35.1858 33.927 34.755C34.2371 34.5088 34.5472 34.3241 34.8574 34.0779C34.6093 34.0164 34.4232 34.0779 34.2371 34.0163C34.0511 34.0163 33.803 34.0163 33.6169 33.8932C33.4929 33.5239 33.3688 33.1546 33.2448 32.7853C33.0587 33.1546 32.9967 33.5855 32.8726 33.8932C32.4385 34.0163 32.0663 33.9548 31.6322 34.0163C31.9423 34.2626 32.3144 34.4472 32.5625 34.755C32.5005 35.2474 32.3144 35.5551 32.2524 35.986ZM39.385 9.82697C39.261 10.1963 39.0749 10.5656 39.0129 10.9964C39.3851 10.7502 39.6952 10.504 40.0673 10.3194C40.3774 10.5656 40.6875 10.8118 41.1217 10.9964C41.0597 10.7502 40.9976 10.5656 40.9356 10.3809C40.8736 10.1963 40.8116 10.0116 40.7496 9.76542C41.0597 9.51922 41.3698 9.33457 41.7419 9.02681C41.6799 9.02681 41.6179 9.02681 41.6179 9.02681C41.3698 9.02681 41.1217 9.02681 40.8736 9.02681C40.6255 9.02681 40.5015 8.96526 40.3774 8.71906C40.3154 8.47286 40.2534 8.28821 40.1293 8.04201C40.1293 7.98046 40.0673 7.98045 40.0673 7.85735C39.8192 8.22666 39.8192 8.65751 39.6331 9.02681C39.4471 9.02681 39.261 9.02681 39.0749 9.02681C38.8889 9.02681 38.7028 9.02681 38.4547 9.08836C38.7648 9.33457 39.137 9.51922 39.385 9.82697ZM40.4394 35.6167C40.3774 35.432 40.3154 35.2474 40.2534 35.0627C40.1914 34.8781 40.1293 34.6934 40.0673 34.5088C39.8812 34.8781 39.8192 35.3089 39.6331 35.6782C39.261 35.7398 38.8268 35.6782 38.3927 35.7398C38.5167 35.8013 38.5788 35.8629 38.6408 35.9244C38.8268 36.0475 39.0749 36.2322 39.261 36.3553C39.323 36.4168 39.323 36.4168 39.385 36.4784C39.323 36.663 39.261 36.8477 39.199 37.0323C39.137 37.217 39.0749 37.4016 39.0129 37.5863C39.0749 37.5247 39.137 37.5247 39.199 37.4632C39.385 37.3401 39.5711 37.1554 39.7572 37.0323C39.9433 36.9092 40.1293 36.9092 40.2534 37.0323C40.4394 37.217 40.6255 37.3401 40.8736 37.4632C40.9356 37.4632 40.9976 37.5247 41.0597 37.5247C41.0597 37.3401 40.9976 37.217 40.9356 37.0939C40.8736 36.9092 40.8116 36.7246 40.7496 36.5399C40.6875 36.4168 40.7496 36.3553 40.8116 36.2937C40.9356 36.2322 40.9977 36.1091 41.1217 36.0475C41.2457 35.9244 41.4318 35.8629 41.5559 35.7398C41.6179 35.7398 41.6179 35.6782 41.6179 35.6167C41.2457 35.6782 40.8736 35.7398 40.4394 35.6167ZM29.0892 16.5975C29.1512 16.536 29.2753 16.4744 29.3373 16.4129C29.3993 16.3513 29.5234 16.2898 29.5854 16.2282C29.6474 16.1667 29.7715 16.1051 29.8335 16.0436C29.8955 15.982 30.0196 15.9205 30.0816 15.8589C29.8335 15.8589 29.6474 15.8589 29.4614 15.8589C29.2753 15.8589 29.0892 15.8589 28.8411 15.7974C28.7791 15.6743 28.7791 15.6127 28.7171 15.4896C28.6551 15.2434 28.593 14.9972 28.469 14.8126C28.469 14.751 28.407 14.751 28.407 14.6895C28.2209 15.0588 28.2209 15.4896 27.9728 15.7974C27.6007 15.8589 27.1665 15.7974 26.7323 15.8589C26.9184 15.982 27.1045 16.1051 27.2285 16.2282C27.4146 16.3513 27.5386 16.4744 27.7247 16.5975C27.6627 17.0284 27.4766 17.3361 27.3526 17.767C27.7247 17.5823 27.9728 17.213 28.407 17.0899C28.7791 17.2746 29.0892 17.5208 29.4614 17.767C29.3993 17.5208 29.3373 17.3361 29.2753 17.1515C29.2133 17.0284 29.1512 16.8437 29.0892 16.5975ZM52.4099 16.4129C52.72 16.1667 53.0301 15.982 53.2782 15.7358C53.2782 15.7358 53.2782 15.7358 53.2782 15.6743H52.1618C52.0998 15.5512 52.0998 15.4896 52.0378 15.3665C51.9757 15.1203 51.9137 14.8741 51.7897 14.6279C51.7897 14.5664 51.7276 14.5664 51.7276 14.5048C51.6036 14.8741 51.4795 15.2434 51.3555 15.6127C51.2315 15.6127 51.1694 15.6743 51.0454 15.6743C50.9213 15.6743 50.8593 15.6743 50.7353 15.6743C50.6112 15.6743 50.4872 15.6743 50.4252 15.6743C50.3011 15.6743 50.2391 15.6743 50.115 15.7358C50.2391 15.8589 50.3011 15.9205 50.4252 15.982C50.5492 16.0436 50.6732 16.1667 50.7353 16.2282C50.8593 16.2898 50.9834 16.3513 51.0454 16.4744C50.9834 16.8437 50.7973 17.213 50.6732 17.6439C50.8593 17.5208 51.0454 17.3977 51.1694 17.2746C51.3555 17.1515 51.4795 17.0284 51.6656 16.9053C51.8517 16.9668 51.9757 17.0899 52.1618 17.213C52.2859 17.3361 52.4719 17.4592 52.596 17.5823C52.658 17.5823 52.658 17.6439 52.72 17.5823C52.596 17.213 52.4719 16.7822 52.4099 16.4129ZM34.1131 12.8429C33.989 12.4121 33.865 12.0428 33.741 11.6735C33.803 11.6119 33.865 11.5504 33.927 11.5504C34.1751 11.3657 34.3612 11.2426 34.6093 11.058C34.6713 11.058 34.6713 10.9964 34.6713 10.9349C34.2992 10.9349 33.865 10.9349 33.4929 10.8733C33.3688 10.504 33.2448 10.1347 33.1207 9.76542C32.9347 10.1347 32.8726 10.5656 32.6866 10.9349C32.5005 10.9349 32.3144 10.9964 32.0663 10.9964C31.8803 10.9964 31.6942 10.9964 31.4461 10.9964C31.7562 11.3042 32.1283 11.4888 32.4385 11.735C32.3764 11.8581 32.3764 11.9197 32.3764 12.0428C32.3764 12.1659 32.3144 12.2274 32.3144 12.3505C32.2524 12.4736 32.2524 12.5352 32.1904 12.6583C32.1904 12.7198 32.1283 12.843 32.1283 12.9661C32.5005 12.7198 32.8106 12.4121 33.1827 12.289C33.4308 12.3505 33.7409 12.5352 34.1131 12.8429ZM29.0892 29.954C29.1512 29.8925 29.2133 29.8309 29.3373 29.7694C29.3993 29.7078 29.5234 29.6463 29.5854 29.5847C29.6474 29.5232 29.7715 29.4616 29.8335 29.4001C29.8955 29.3385 30.0196 29.277 30.0816 29.2154C29.8955 29.2154 29.7715 29.2154 29.6474 29.2154C29.5234 29.2154 29.3993 29.2154 29.2753 29.2154C29.1512 29.2154 29.0272 29.2154 28.8411 29.1539C28.7791 29.0308 28.7791 28.9076 28.7171 28.7845C28.6551 28.5383 28.593 28.3537 28.469 28.1075C28.469 28.0459 28.469 28.0459 28.407 28.0459C28.3449 28.2921 28.2209 28.5383 28.1589 28.7845C28.0969 29.0923 28.0348 29.0923 27.7867 29.0923C27.6627 29.0923 27.6007 29.0923 27.4766 29.0923C27.2905 29.0923 27.1665 29.0923 26.9804 29.0923C26.9184 29.0923 26.9184 29.0923 26.8564 29.0923V29.1539C27.1045 29.4616 27.4766 29.5847 27.7867 29.8925C27.7867 29.954 27.7867 29.954 27.7247 30.0156C27.6007 30.3233 27.5386 30.6311 27.4146 30.9388C27.4146 31.0004 27.3526 31.0004 27.4146 31.0619C27.7867 30.8773 28.0348 30.5695 28.407 30.3849C28.531 30.4464 28.6551 30.508 28.7791 30.6311C28.9032 30.6926 28.9652 30.7542 29.0892 30.8773C29.2133 30.9388 29.2753 31.0619 29.4614 31.1235C29.3373 30.6926 29.2133 30.3233 29.0892 29.954Z" fill="#016AB1"/>
<path id="Vector_47" d="M57.8731 36.1706C57.9971 36.5399 57.9971 36.9093 57.9971 37.2786C57.9971 37.4017 57.9351 37.5248 57.8731 37.6479C57.749 37.7094 57.687 37.8325 57.625 37.8941C57.5009 38.0172 57.3769 38.0787 57.1908 38.2018C56.3844 38.5711 55.578 38.8789 54.7096 39.1251C54.0273 39.3097 53.283 39.5559 52.6007 39.7406C52.1665 39.8637 51.7323 39.9868 51.2981 40.1099C51.05 40.1714 50.8019 40.233 50.5538 40.3561C50.0575 40.5407 49.4993 40.6638 49.0031 40.8485C48.0726 41.0947 47.2042 41.4024 46.2738 41.7102C46.2118 41.7102 46.1498 41.7718 46.0877 41.7718C45.4054 41.9564 44.7851 42.2026 44.1028 42.3873C43.4205 42.5719 42.7382 42.8181 41.9939 43.0028C41.8078 43.0643 41.6837 43.1259 41.4977 43.1259C41.2495 43.1874 41.0014 43.1874 40.6913 43.1259C40.3811 43.0643 40.1951 42.8797 40.071 42.5719C40.071 42.5103 40.009 42.4488 40.009 42.3873C40.2571 42.2026 40.5052 42.0179 40.7533 41.8333C41.0014 41.6486 41.2495 41.5255 41.4977 41.3409C41.7458 41.1562 41.9939 41.0331 42.242 40.7869C41.9939 40.8485 41.7458 40.91 41.4977 40.9716C41.0014 41.0947 40.5052 41.2178 40.009 41.3409C39.8849 41.4024 39.7609 41.4024 39.6368 41.2793C39.6368 41.2793 39.5748 41.2793 39.5748 41.2178C39.5748 41.2793 39.5748 41.3409 39.6368 41.4024C39.5748 41.4024 39.5748 41.464 39.5127 41.464C38.7064 41.7102 37.9 41.9564 37.0937 42.2026C36.6595 42.3257 36.1632 42.5104 35.729 42.695C35.2328 42.8797 34.6746 43.0643 34.1163 43.1874C33.9302 43.249 33.7441 43.249 33.558 43.249C33.434 43.249 33.3099 43.249 33.1859 43.1259C33.0618 43.0643 32.9378 42.9412 32.8137 42.8181C32.6897 42.6335 32.6897 42.4488 32.7517 42.2641C32.8757 42.0179 33.0618 41.7717 33.2479 41.5871C33.2479 41.5255 33.3099 41.5255 33.372 41.5255C33.558 41.3409 33.8062 41.2178 33.9922 41.0331C34.3644 40.7869 34.7366 40.5407 35.1088 40.4176C35.9151 40.1099 36.6595 39.8021 37.4658 39.4944C37.9 39.3097 38.3962 39.1866 38.8304 39.002C39.0165 38.9404 39.2026 38.8789 39.3887 38.8789C39.6368 38.8173 39.8849 38.7558 40.133 38.6327C40.4432 38.5096 40.7533 38.448 41.0635 38.3865C41.5597 38.2634 41.9939 38.2018 42.4901 38.0787C42.6762 38.0172 42.8623 38.0172 43.0484 37.9556C43.7307 37.7094 44.475 37.5248 45.1573 37.4017C45.4675 37.3401 45.7776 37.217 46.0257 37.1555C46.2738 37.0939 46.4599 37.0324 46.708 36.9708C47.2663 36.8477 47.8866 36.7246 48.4448 36.6015C48.5068 36.6015 48.6309 36.54 48.6929 36.54C49.4993 36.2322 50.3677 36.1091 51.2361 35.8629C51.6703 35.7398 52.0424 35.6167 52.4766 35.4936C53.0349 35.3705 53.6552 35.1858 54.2134 35.0627C54.7097 34.9396 55.1438 34.755 55.6401 34.6319C56.3224 34.4472 56.9427 34.3241 57.625 34.1395C57.9972 34.0779 58.3073 33.9548 58.6795 33.8317C58.9896 33.7702 59.3618 33.7086 59.7339 33.6471C59.858 33.6471 59.9821 33.5855 60.1061 33.5855C60.4162 33.4624 60.7884 33.7702 60.8504 34.0164C60.8504 34.0779 60.8504 34.1395 60.8504 34.201C60.7884 34.3857 60.6644 34.5703 60.4783 34.6319C60.2922 34.755 60.0441 34.8781 59.858 35.0012C59.6099 35.1243 59.2997 35.2474 59.0516 35.3705C58.8035 35.4936 58.5554 35.6167 58.3073 35.8629C58.1212 35.986 57.9971 36.1091 57.8731 36.1706Z" fill="#016AB1"/>
<path id="Vector_48" d="M6.57031 14.3202C6.63234 14.1355 6.7564 13.9509 6.88045 13.7662C7.00451 13.5816 7.12856 13.4585 7.31465 13.3354C7.68682 13.1507 7.99696 12.9045 8.36913 12.7199C8.55521 12.5968 8.80332 12.5352 8.98941 12.4121C9.11346 12.3506 9.23752 12.289 9.36158 12.1659C9.29955 12.0428 9.29955 11.9812 9.23752 11.8581C9.17549 11.6735 9.11347 11.4888 9.11347 11.3042C9.11347 11.2426 9.11347 11.1811 9.11347 11.058C9.11347 10.8733 9.1755 10.7502 9.36158 10.6887C9.60969 10.5656 9.8578 10.504 10.1059 10.504C10.6642 10.4425 11.1604 10.3809 11.7186 10.1963C12.3389 10.0116 13.0212 9.88853 13.6415 9.70388C13.8276 9.64233 14.1998 9.64233 14.5099 9.70388C14.634 9.82698 14.696 9.95008 14.8201 10.0732C14.8201 10.2578 14.758 10.4425 14.634 10.6271C14.5099 10.7502 14.4479 10.9349 14.3238 11.058C14.1378 11.3042 13.9517 11.4888 13.7656 11.6119C13.5795 11.735 13.3934 11.9197 13.2073 12.0428C12.6491 12.4737 12.0288 12.7814 11.4085 13.0892C10.9743 13.3354 10.4781 13.52 10.0439 13.8278C9.42361 14.1971 8.80333 14.4433 8.12102 14.751C7.81088 14.8741 7.56276 14.8741 7.25262 14.8126C7.12857 14.8126 7.06654 14.751 6.94248 14.751C6.81842 14.751 6.7564 14.6895 6.69437 14.5664C6.69437 14.5664 6.63234 14.4433 6.57031 14.3202Z" fill="#016AB1"/>
<path id="Vector_49" d="M8.43584 18.0133C8.43584 18.1979 8.43584 18.321 8.43584 18.5057C8.31178 18.6288 8.18772 18.6903 8.06366 18.8134C7.50541 19.1827 7.07122 19.6751 6.57499 20.106C5.64457 20.9677 4.77617 21.8294 3.72169 22.568C3.41155 22.8142 3.03938 23.0604 2.72924 23.2451C2.60518 23.3682 2.4191 23.4297 2.23302 23.4913C2.04693 23.6144 1.79882 23.7375 1.61274 23.8606C1.42665 23.9837 1.17854 24.0452 0.992455 24.1068C0.868398 24.1068 0.744342 24.1683 0.682314 24.1068C0.496229 24.0452 0.372171 23.9837 0.186086 23.8606C0.124058 23.8606 0.124059 23.799 0.124059 23.7375C0.062031 23.6144 0.0620282 23.5528 0 23.4297C0 23.3682 0 23.3682 0 23.3066C0.0620282 23.122 0.124057 22.9373 0.248114 22.8142C0.310142 22.6911 0.434199 22.6296 0.496227 22.5065C0.620284 22.3218 0.744338 22.1987 0.930423 22.0756C1.42665 21.6448 1.98491 21.2139 2.54316 20.783C3.16344 20.2906 3.78372 19.9213 4.46603 19.552C5.2724 19.0596 6.14079 18.5672 7.07121 18.1364C7.31933 18.0133 7.62947 17.8902 7.93961 17.8286C8.06367 17.8902 8.24975 17.8902 8.43584 18.0133Z" fill="#016AB1"/>
<path id="Vector_50" d="M8.5 45.5264C8.5 45.0955 8.56203 44.7262 8.62405 44.3569C8.68608 43.9876 8.74811 43.6799 8.87217 43.3105C8.9342 43.1259 8.99623 42.9412 9.12028 42.8181C9.36839 42.4488 9.74056 42.2642 10.1748 42.2026C10.3608 42.2026 10.5469 42.2642 10.733 42.3873C10.795 42.4488 10.8571 42.4488 10.9191 42.5104C11.2292 42.7566 11.2292 42.7566 11.2292 43.1259C11.1672 43.4336 11.1672 43.7414 11.1052 44.0492C10.9811 44.7878 10.9811 45.5264 11.2292 46.265C11.3533 46.6958 11.2913 47.0651 11.1672 47.496C11.0432 47.8037 10.795 47.9884 10.4229 47.9884C9.92665 48.0499 9.55448 47.8653 9.30636 47.496C9.24434 47.3729 9.12028 47.2498 9.05825 47.0651C8.62406 46.5727 8.5 46.0803 8.5 45.5264Z" fill="#016AB1"/>
<path id="Vector_51" d="M16.6875 11.1811C16.8116 11.058 16.8736 10.9349 16.9976 10.8734C17.3078 10.5656 17.6179 10.381 18.0521 10.1963C18.6724 9.95012 19.2927 9.76547 19.913 9.64237C20.4712 9.51927 21.0295 9.39617 21.5877 9.21151C21.7738 9.14996 21.8979 9.08841 22.084 9.08841C22.27 9.02686 22.5181 8.96531 22.7042 8.90376C22.8283 8.90376 22.8903 8.84221 23.0144 8.84221C23.2625 8.78066 23.5726 8.65756 23.8207 8.59601C24.0689 8.53446 24.379 8.47291 24.6271 8.41136C24.8132 8.34981 25.0613 8.28826 25.2474 8.2267C25.3714 8.16515 25.5575 8.16515 25.6816 8.2267C25.7436 8.34981 25.8056 8.53446 25.8056 8.65756C25.6816 8.78066 25.5575 8.90376 25.3714 8.96531C25.0613 9.02687 24.7512 9.21152 24.503 9.39617C23.8828 9.82702 23.2005 10.0732 22.5181 10.2579C22.27 10.3194 22.0219 10.4425 21.8358 10.5656C21.5877 10.6887 21.3396 10.8118 21.0915 10.8734C20.7814 10.9349 20.4712 10.9965 20.1611 11.1811C19.4788 11.4889 18.7965 11.7351 18.1141 12.0428C18.0521 12.1044 17.9281 12.1044 17.866 12.1044C17.6179 12.1044 17.4318 12.1044 17.1837 12.1044C17.0597 12.1044 16.9976 12.0428 16.9356 11.9197C16.8736 11.8582 16.8736 11.7351 16.8736 11.612C16.6875 11.4889 16.6875 11.3042 16.6875 11.1811Z" fill="#016AB1"/>
<path id="Vector_52" d="M90.1253 8.71908C89.9392 9.02683 89.6911 9.21148 89.381 9.27303C89.1328 9.33459 88.8847 9.39613 88.5746 9.39613C87.7682 9.51924 86.8998 9.64234 86.0935 9.76544C85.9694 9.76544 85.8454 9.76544 85.6593 9.76544C85.5352 9.76544 85.4732 9.70389 85.4112 9.64234C85.2251 9.45769 85.2251 9.21148 85.2871 8.96528C85.2871 8.90373 85.3491 8.84218 85.4112 8.78063C85.5352 8.71908 85.7213 8.65753 85.8454 8.59597C86.0314 8.53442 86.2796 8.47288 86.4656 8.41133C86.6517 8.34978 86.8998 8.28822 87.0859 8.22667C87.334 8.16512 87.6442 8.10357 87.8923 8.04202C88.2644 8.04202 88.6987 7.98047 89.0708 7.98047C89.1949 7.98047 89.3189 7.98047 89.443 7.98047C89.6911 7.98047 89.9392 8.10357 90.0012 8.34978C90.0633 8.53443 90.1253 8.59598 90.1253 8.71908Z" fill="#016AB1"/>
<path id="Vector_53" d="M16.1331 11.8582C16.1952 11.9813 16.2572 12.0428 16.3192 12.1659C16.2572 12.3506 16.1952 12.5352 16.0711 12.7199C15.823 13.2123 15.4508 13.5816 15.0166 13.8893C14.7685 14.074 14.5204 14.1971 14.2103 14.3202C14.0242 14.4433 13.8381 14.4433 13.652 14.4433C13.3419 14.4433 13.2178 14.1971 13.0938 13.9509C13.1558 13.7662 13.0938 13.52 13.2798 13.3969C13.5279 13.1507 13.8381 12.9045 14.0862 12.6583C14.1482 12.5968 14.1482 12.5968 14.2103 12.5968C14.6445 12.3506 15.0787 12.1044 15.5749 11.9197C15.6989 11.8582 15.885 11.8582 16.1331 11.8582Z" fill="#016AB1"/>
<path id="Vector_54" d="M37.3435 44.8493C37.0334 44.8493 36.7233 44.7878 36.4751 44.6031C36.3511 44.5416 36.2891 44.4185 36.2891 44.2953C36.2891 44.1107 36.3511 43.926 36.4751 43.8029C36.7233 43.6183 36.9093 43.4336 37.1575 43.3105C37.4676 43.1259 37.7157 42.8797 38.0259 42.695C38.274 42.5104 38.5841 42.4488 38.8942 42.5104C39.1424 42.5719 39.2664 42.695 39.3284 42.9412C39.3905 43.1259 39.3284 43.3105 39.3284 43.4952C39.3284 43.5567 39.2664 43.6183 39.2664 43.6183C39.1424 43.803 38.9563 43.9876 38.7702 44.1722C38.5841 44.3569 38.336 44.48 38.0879 44.6647C37.8398 44.7878 37.5917 44.8493 37.3435 44.8493Z" fill="#016AB1"/>
<path id="Vector_55" d="M54.4557 10.2579C54.3316 10.381 54.2696 10.4425 54.1455 10.5041C54.0835 10.5656 53.9594 10.6272 53.8354 10.6272C53.3392 10.6272 52.905 10.8118 52.4708 10.8734C52.0366 10.9349 51.6644 10.9965 51.2302 11.058C51.1062 11.058 50.9821 11.058 50.796 11.1196C50.4859 10.8118 50.5479 10.4425 50.672 10.1347C51.0441 10.0116 51.4163 9.88855 51.8505 9.88855C52.5328 9.88855 53.2151 9.88855 53.9594 9.88855C54.0215 9.88855 54.0215 9.88855 54.0835 9.88855C54.2696 9.88855 54.3316 9.9501 54.3936 10.0732C54.4557 10.1347 54.4557 10.1963 54.4557 10.2579Z" fill="#016AB1"/>
<path id="Vector_56" d="M20.0879 15.7358C19.8398 15.9204 19.5917 16.0435 19.4056 16.2282C19.2815 16.2897 19.2815 16.2897 19.0334 16.2897C18.7233 15.982 18.5372 15.5511 18.3511 15.1818C18.2891 15.0587 18.2891 14.9356 18.2891 14.8125C18.2891 14.6279 18.3511 14.5048 18.4751 14.4432C18.6612 14.3201 18.8473 14.197 19.0334 14.0739C19.3435 13.8893 19.4056 13.9508 19.5917 14.197C19.7777 14.5048 19.9018 14.8741 20.0259 15.2434C20.0879 15.3665 20.0879 15.5511 20.0879 15.7358Z" fill="#016AB1"/>
<path id="Vector_57" d="M6.89472 14.8741C6.95675 15.0588 6.95675 15.1819 7.01878 15.3665C7.0808 15.6128 6.95675 15.859 6.70864 15.9205C6.58458 15.9821 6.46052 15.9821 6.33647 16.0436C6.08835 16.0436 5.90227 16.1052 5.65416 16.1667C5.46807 16.1052 5.34402 16.0436 5.15793 15.9821C4.84779 15.859 4.59968 15.6743 4.35156 15.4281C4.41359 15.2435 4.53765 15.1203 4.6617 15.0588C4.78576 14.9972 4.90982 14.9357 5.03388 14.8741C5.15793 14.8126 5.34401 14.751 5.5301 14.6895C5.77821 14.5664 6.02633 14.5664 6.33647 14.6895C6.52255 14.751 6.70864 14.8126 6.89472 14.8741Z" fill="#016AB1"/>
<path id="Vector_58" d="M12.5865 15.3665C12.5245 15.5512 12.4004 15.6743 12.2764 15.7359C11.9662 15.9205 11.5941 16.1052 11.2219 16.1052C10.9738 16.1052 10.7877 16.1052 10.5396 15.9821C10.4775 15.6743 10.6016 15.4896 10.7877 15.305C11.0358 15.0588 11.3459 14.8741 11.7181 14.8741C11.9042 14.8741 12.0903 14.8741 12.2764 14.8741C12.4624 15.0588 12.5245 15.1819 12.5865 15.3665Z" fill="#016AB1"/>
<path id="Vector_59" d="M92.2319 8.719C92.1699 8.78055 92.1079 8.78054 92.1079 8.84209C91.9218 9.0883 91.6737 9.14985 91.3635 9.14985C91.3015 9.14985 91.1774 9.14985 91.1154 9.14985C91.0534 9.02675 90.9914 8.9652 90.9293 8.84209C90.8673 8.78054 90.8673 8.65744 90.9293 8.59589C90.9914 8.47279 91.0534 8.41124 91.1154 8.34969C91.3015 8.28814 91.4256 8.22659 91.5496 8.22659C91.6737 8.22659 91.7357 8.16504 91.8598 8.16504C92.0458 8.16504 92.1699 8.22659 92.1699 8.41124C92.2319 8.53434 92.2319 8.59589 92.2319 8.719Z" fill="#016AB1"/>
<path id="Vector_60" d="M22.6964 22.8757C22.6344 22.8142 22.6344 22.7526 22.6344 22.6911C22.5723 22.0756 22.8205 21.5832 23.3167 21.2139C23.5648 21.0292 23.8749 20.9677 24.2471 20.9061C24.6813 20.9061 25.0535 20.9677 25.3636 21.2139V21.2754V21.337C25.3636 21.337 25.3636 21.3985 25.3016 21.3985C25.0535 21.5832 24.8054 21.7063 24.4952 21.8909C24.123 22.0756 23.8129 22.2602 23.5028 22.4449C23.3167 22.568 23.1926 22.6295 23.0065 22.6911C22.9445 22.8142 22.8205 22.8142 22.6964 22.8757Z" fill="#016AB1"/>
</g>
</g>
</svg>
