<svg width="36" height="36" viewBox="0 0 36 36" fill="none" xmlns="http://www.w3.org/2000/svg">
<circle cx="18" cy="18" r="17.5" stroke="#F5F5F5"/>
<path d="M23 8H13C10.2386 8 8 10.2386 8 13V23C8 25.7614 10.2386 28 13 28H23C25.7614 28 28 25.7614 28 23V13C28 10.2386 25.7614 8 23 8Z" stroke="#F5F5F5" stroke-width="1.5" stroke-linecap="round" stroke-linejoin="round"/>
<path d="M22.0036 17.3698C22.127 18.2021 21.9849 19.052 21.5974 19.7988C21.2099 20.5456 20.5968 21.1512 19.8452 21.5295C19.0937 21.9077 18.2421 22.0394 17.4114 21.9057C16.5807 21.7721 15.8134 21.3799 15.2185 20.785C14.6235 20.1901 14.2313 19.4227 14.0977 18.592C13.964 17.7614 14.0957 16.9097 14.4739 16.1582C14.8522 15.4067 15.4578 14.7936 16.2046 14.4061C16.9514 14.0186 17.8014 13.8764 18.6336 13.9998C19.4825 14.1257 20.2685 14.5213 20.8753 15.1281C21.4822 15.735 21.8777 16.5209 22.0036 17.3698Z" stroke="#F5F5F5" stroke-width="1.5" stroke-linecap="round" stroke-linejoin="round"/>
<path d="M23.5 12.5H23.51" stroke="#F5F5F5" stroke-width="1.5" stroke-linecap="round" stroke-linejoin="round"/>
</svg>
