<svg width="36" height="36" viewBox="0 0 36 36" fill="none" xmlns="http://www.w3.org/2000/svg">
<circle cx="18" cy="18" r="17.5" stroke="#F5F5F5"/>
<path d="M8.5005 23C7.80192 19.7033 7.80192 16.2967 8.5005 13C8.59228 12.6652 8.76963 12.3601 9.0151 12.1146C9.26057 11.8691 9.5657 11.6918 9.9005 11.6C15.2639 10.7115 20.737 10.7115 26.1005 11.6C26.4353 11.6918 26.7404 11.8691 26.9859 12.1146C27.2314 12.3601 27.4087 12.6652 27.5005 13C28.1991 16.2967 28.1991 19.7033 27.5005 23C27.4087 23.3348 27.2314 23.6399 26.9859 23.8854C26.7404 24.1309 26.4353 24.3082 26.1005 24.4C20.7371 25.2887 15.2639 25.2887 9.9005 24.4C9.5657 24.3082 9.26057 24.1309 9.0151 23.8854C8.76963 23.6399 8.59228 23.3348 8.5005 23Z" stroke="#F5F5F5" stroke-width="1.5" stroke-linecap="round" stroke-linejoin="round"/>
<path d="M16 21L21 18L16 15V21Z" stroke="#F5F5F5" stroke-width="1.5" stroke-linecap="round" stroke-linejoin="round"/>
</svg>
